<?xml version="1.0" standalone="no"?>
<!DOCTYPE svg PUBLIC "-//W3C//DTD SVG 20010904//EN"
 "http://www.w3.org/TR/2001/REC-SVG-20010904/DTD/svg10.dtd">
<svg version="1.0" xmlns="http://www.w3.org/2000/svg"
 width="380.000000pt" height="380.000000pt" viewBox="0 0 380.000000 380.000000"
 preserveAspectRatio="xMidYMid meet">
<metadata>
Created by potrace 1.16, written by Peter Selinger 2001-2019
</metadata>
<g transform="translate(0.000000,380.000000) scale(0.100000,-0.100000)"
fill="#000000" stroke="none">
<path d="M1776 3220 c-27 -11 -54 -24 -60 -30 -15 -15 -29 -12 -22 5 15 40
-87 -1 -156 -63 -37 -34 -41 -35 -53 -18 -12 16 -16 15 -55 -20 -23 -21 -55
-57 -72 -81 -25 -37 -32 -42 -45 -32 -12 11 -18 9 -34 -11 -24 -30 -59 -95
-59 -109 0 -5 -5 -22 -10 -37 -8 -21 -14 -24 -22 -16 -7 7 -15 12 -20 12 -12
0 -48 -128 -48 -171 0 -32 -3 -39 -20 -39 -32 0 -39 -87 -14 -184 4 -18 1 -25
-16 -29 -19 -5 -20 -10 -15 -44 4 -21 20 -67 36 -101 28 -62 28 -64 9 -69 -11
-3 -20 -7 -20 -9 0 -17 57 -112 86 -144 32 -35 33 -39 17 -48 -16 -10 -15 -13
13 -49 17 -21 54 -54 83 -75 28 -20 47 -39 41 -43 -32 -20 26 -68 124 -101 53
-18 57 -41 5 -35 -79 8 -68 27 -125 -219 -74 -323 -156 -587 -202 -658 -8 -12
-13 -24 -11 -26 2 -2 56 35 119 82 64 48 127 95 140 104 14 10 56 40 95 68 68
50 70 50 78 28 5 -13 36 -120 69 -238 33 -118 63 -219 67 -223 16 -16 116 271
186 533 18 69 35 118 39 110 3 -8 19 -67 36 -130 68 -255 165 -530 180 -513 6
6 79 253 138 466 4 17 6 17 31 1 21 -14 335 -246 390 -288 12 -9 13 -8 8 4
-93 218 -141 374 -212 685 -26 116 -49 211 -50 213 -2 2 -20 -9 -41 -23 -32
-22 -39 -23 -46 -11 -6 11 6 30 44 68 29 30 61 66 72 82 13 20 21 25 29 17 6
-6 14 -11 18 -11 12 0 61 83 79 134 14 42 21 50 38 48 28 -4 49 46 58 134 6
53 10 64 25 64 31 0 37 73 13 188 -6 28 -4 32 15 32 11 0 21 2 21 5 0 26 -27
120 -46 156 -22 45 -23 47 -4 52 18 5 19 7 3 47 -9 23 -36 64 -60 90 -39 43
-42 50 -26 58 16 9 15 13 -7 45 -13 19 -47 52 -77 73 -57 41 -59 44 -42 61 15
15 -62 69 -128 90 -45 14 -52 19 -47 38 4 17 -2 23 -43 38 -26 9 -64 17 -83
17 -57 0 -81 10 -75 30 4 14 -3 18 -42 23 -27 3 -68 1 -93 -3 -65 -13 -80 -12
-80 5 0 21 -63 19 -124 -5z m332 -204 c292 -101 472 -381 442 -685 -43 -422
-460 -689 -861 -551 -207 72 -380 264 -425 471 -65 305 76 597 353 734 102 51
176 66 308 61 85 -3 127 -10 183 -30z m208 -1337 c8 -14 -61 -86 -106 -109
-57 -29 -80 -34 -80 -16 0 26 -18 27 -57 3 -49 -31 -98 -47 -139 -47 -27 0
-34 4 -34 19 0 14 10 20 48 25 26 3 71 17 101 31 48 23 55 24 65 10 10 -15 16
-14 56 3 25 11 63 36 85 55 44 40 51 42 61 26z"/>
<path d="M1774 3016 c-137 -32 -240 -91 -335 -194 -176 -190 -218 -457 -108
-700 71 -158 231 -290 409 -338 94 -25 244 -22 335 6 114 36 183 78 270 165
127 126 185 266 185 445 0 105 -20 190 -64 278 -81 161 -217 276 -386 326 -77
23 -230 29 -306 12z m288 -72 c29 -9 80 -30 112 -46 59 -30 168 -124 188 -163
6 -11 -18 7 -53 41 -69 66 -174 122 -269 145 -71 17 -200 17 -270 0 -84 -21
-195 -80 -263 -140 -60 -54 -61 -51 -1 17 62 72 194 141 307 162 66 11 180 4
249 -16z m39 -129 c40 -14 79 -31 88 -38 9 -7 37 -23 63 -36 26 -12 50 -26 53
-32 4 -5 10 -7 15 -4 4 3 10 -1 13 -8 4 -10 -21 -24 -76 -47 -243 -98 -338
-140 -492 -217 -93 -46 -174 -88 -180 -93 -5 -4 -32 -20 -60 -35 -27 -15 -83
-49 -124 -76 -41 -27 -77 -46 -80 -43 -11 11 -5 138 7 142 7 2 12 18 12 36 0
18 11 55 25 82 14 27 25 57 25 67 0 9 4 17 8 17 5 0 20 15 33 34 45 62 122
146 136 146 7 0 13 6 13 13 0 16 27 33 68 42 18 3 32 12 32 19 0 17 54 34 135
42 39 4 79 10 90 14 34 13 121 2 196 -25z"/>
</g>
</svg>
