<?xml version="1.0" standalone="no"?>
<!DOCTYPE svg PUBLIC "-//W3C//DTD SVG 20010904//EN"
 "http://www.w3.org/TR/2001/REC-SVG-20010904/DTD/svg10.dtd">
<svg version="1.0" xmlns="http://www.w3.org/2000/svg"
 width="1280.000000pt" height="738.000000pt" viewBox="0 0 1280.000000 738.000000"
 preserveAspectRatio="xMidYMid meet">
<metadata>
Created by potrace 1.15, written by Peter Selinger 2001-2017
</metadata>
<g transform="translate(0.000000,738.000000) scale(0.100000,-0.100000)"
fill="#000000" stroke="none">
<path d="M1116 7364 c-126 -30 -276 -138 -276 -198 0 -13 18 -54 40 -90 22
-36 54 -94 72 -130 l31 -63 -32 -76 c-63 -153 -38 -200 114 -209 54 -4 56 -25
6 -94 -23 -32 -41 -67 -41 -79 0 -11 -13 -41 -28 -66 -50 -79 -157 -156 -269
-195 l-53 -19 0 -105 c1 -108 7 -150 35 -235 9 -27 30 -93 47 -145 17 -52 52
-152 79 -221 52 -133 72 -161 147 -198 23 -12 42 -24 42 -28 0 -4 -23 -67 -50
-141 -34 -90 -54 -162 -61 -216 -5 -44 -21 -130 -34 -191 -42 -195 -74 -458
-56 -469 18 -11 29 31 46 174 19 159 56 331 84 396 21 46 21 46 58 39 21 -3
91 -24 155 -46 64 -21 134 -39 155 -39 46 0 110 -17 119 -31 4 -7 -31 -10
-103 -9 -164 2 -168 1 -156 -11 5 -5 56 -15 113 -20 99 -9 160 -28 160 -50 0
-6 -36 -10 -97 -9 -192 2 -200 -2 -42 -25 107 -16 149 -28 149 -44 0 -19 -33
-20 -139 -4 -108 15 -165 12 -131 -7 9 -5 67 -16 130 -25 118 -16 156 -31 125
-48 -11 -5 -62 -4 -136 4 -66 6 -122 9 -125 6 -12 -12 36 -26 122 -37 207 -27
213 -51 10 -44 -162 6 -152 -9 20 -32 119 -15 159 -27 149 -45 -4 -5 -70 -9
-148 -9 -154 -1 -164 -11 -27 -29 113 -15 180 -31 180 -42 0 -5 -57 -9 -127
-9 -153 0 -154 -13 -3 -36 58 -8 106 -17 109 -20 2 -2 -25 -4 -60 -5 -35 0
-86 -4 -114 -8 l-50 -7 35 -8 c19 -4 55 -11 80 -15 38 -7 28 -9 -62 -10 -120
-1 -191 11 -227 38 -24 19 -25 20 -33 277 -10 326 -14 366 -36 362 -14 -3 -18
-17 -20 -73 -2 -40 -8 -73 -15 -77 -9 -5 -9 -10 1 -20 18 -18 15 -28 -10 -28
-21 0 -21 -1 6 -29 34 -36 27 -56 -18 -47 l-31 6 37 -31 c46 -37 49 -54 8 -45
-38 7 -38 1 1 -32 l32 -26 -39 -12 c-22 -7 -32 -12 -23 -13 9 -1 27 -10 40
-21 l24 -19 -43 -1 c-54 0 -52 -18 3 -37 61 -21 68 -35 15 -33 -74 3 -75 2
-56 -19 17 -19 17 -20 -21 -26 -123 -21 -125 -37 -7 -47 88 -8 151 -30 165
-58 32 -66 98 -241 101 -265 4 -36 1 -36 -132 1 -179 49 -386 32 -541 -47
-225 -113 -378 -299 -455 -555 -24 -79 -27 -106 -28 -234 0 -161 12 -229 65
-356 66 -158 188 -308 353 -434 107 -81 237 -157 284 -166 46 -9 59 -35 78
-151 18 -104 15 -139 -11 -130 -28 11 -210 18 -224 9 -23 -16 -4 -42 46 -65
37 -17 67 -22 131 -22 45 0 82 -1 82 -2 0 -1 16 -61 35 -132 189 -697 631
-1145 1250 -1267 119 -24 345 -24 474 0 280 51 538 180 736 368 l86 81 99 -27
c155 -41 332 -58 615 -59 l250 -1 125 48 c206 78 339 151 490 267 86 66 114
79 174 79 l43 0 11 86 c9 68 19 100 47 148 81 141 169 350 204 486 9 36 20 70
24 77 4 6 35 14 69 18 83 8 154 29 263 75 123 52 176 66 350 96 83 13 210 36
282 50 73 14 138 24 145 22 24 -8 -98 -58 -163 -67 -139 -19 -166 -54 -219
-275 -54 -228 -129 -402 -231 -538 -60 -80 -108 -118 -165 -130 -69 -15 -107
-77 -85 -139 17 -50 -6 -79 -65 -79 -111 0 -212 -107 -249 -262 -18 -78 -19
-158 -2 -182 12 -16 18 -16 57 -6 76 20 139 58 300 179 162 122 280 229 280
253 0 23 89 200 165 328 198 334 314 469 475 550 111 56 211 81 426 105 167
19 256 42 391 101 56 24 106 44 111 44 16 0 22 -28 22 -104 0 -103 -28 -177
-111 -293 -43 -60 -69 -107 -69 -123 0 -44 55 -85 207 -154 310 -140 495 -287
527 -419 12 -48 40 -67 101 -67 64 0 71 -14 26 -48 -75 -55 -62 -192 30 -296
44 -51 106 -78 171 -74 78 4 79 10 72 258 -6 205 -6 205 -37 270 -41 83 -92
134 -192 189 -314 173 -430 288 -429 422 1 94 31 134 239 324 114 104 174 181
221 282 40 84 56 103 90 103 14 0 122 -32 241 -71 366 -120 526 -154 830 -179
157 -13 210 -8 248 22 16 12 70 30 133 44 59 12 158 35 221 49 62 14 119 24
126 21 8 -3 11 -15 8 -30 -8 -41 49 -88 143 -120 42 -14 105 -44 138 -65 110
-72 307 -144 640 -236 93 -25 202 -59 242 -75 396 -158 632 -399 739 -755 28
-92 58 -135 94 -135 22 0 51 -31 51 -54 0 -10 -9 -29 -20 -43 -84 -107 110
-344 284 -347 59 0 86 14 86 48 0 12 -14 62 -30 112 -43 125 -57 185 -74 302
-17 125 -27 142 -185 335 -191 234 -329 436 -350 514 -15 54 -63 124 -124 179
-57 51 -143 104 -169 104 -33 0 -65 22 -81 55 -11 23 -37 46 -84 74 -99 58
-111 67 -232 171 -74 64 -111 102 -111 116 0 11 20 70 45 131 53 131 65 186
65 304 l0 89 35 0 c48 0 92 24 115 63 25 41 25 83 0 129 -24 45 -21 56 45 158
107 165 226 464 246 621 15 113 16 114 34 99 36 -30 155 -318 155 -375 0 -19
-9 -52 -20 -72 -27 -52 -26 -101 5 -143 14 -19 25 -41 25 -50 0 -28 22 -40 73
-40 41 0 54 -5 74 -26 19 -21 30 -25 56 -21 18 4 57 10 88 15 101 17 151 59
189 160 24 62 45 211 32 224 -13 13 -51 -90 -59 -154 -3 -27 -10 -48 -14 -48
-5 0 -9 7 -9 15 0 18 -44 65 -60 65 -6 0 -25 -13 -41 -29 -22 -22 -29 -39 -29
-68 0 -22 -5 -44 -12 -51 -9 -9 -9 -15 -1 -23 12 -12 75 11 105 37 9 9 22 13
27 9 18 -11 -6 -43 -48 -65 -41 -21 -153 -42 -175 -34 -27 10 -34 75 -12 97 8
8 16 29 18 48 2 28 10 37 39 51 43 20 76 68 92 135 l12 48 55 0 c30 -1 75 -3
99 -5 l44 -5 13 70 c6 39 25 104 41 145 17 41 47 125 68 185 20 61 53 148 72
195 19 47 41 119 49 160 25 138 14 293 -22 307 -23 8 -16 23 11 23 30 0 37 22
33 107 l-3 62 -47 -29 c-44 -28 -67 -60 -33 -46 44 18 48 16 22 -8 -34 -31
-97 -35 -172 -10 l-48 17 6 71 c6 84 26 166 39 166 5 0 6 -19 2 -45 -5 -34 -3
-50 8 -63 9 -9 18 -29 22 -44 7 -33 16 -34 45 -10 29 23 40 77 41 192 1 79 3
92 13 75 7 -12 13 -63 13 -129 1 -94 4 -111 20 -123 28 -20 39 -11 42 38 2 24
8 50 15 57 13 16 22 222 13 286 -4 25 -12 46 -17 46 -6 0 -18 -17 -27 -37
l-17 -38 -3 42 c-4 48 -23 71 -41 49 -7 -8 -19 -41 -26 -74 -8 -32 -23 -84
-35 -115 l-21 -57 -51 26 c-45 23 -52 24 -66 10 -12 -10 -22 -12 -33 -6 -38
22 -279 43 -474 43 -222 0 -354 -15 -401 -44 -17 -10 -39 -19 -49 -19 -29 0
-184 -69 -261 -116 -39 -24 -75 -44 -81 -44 -5 0 -18 -9 -28 -20 -10 -11 -41
-33 -69 -49 -128 -72 -377 -383 -528 -660 -33 -61 -105 -80 -493 -131 -252
-33 -359 -40 -375 -24 -8 8 -23 7 -53 -3 -76 -27 -212 -8 -1142 158 -484 86
-928 168 -1002 184 -14 3 -23 13 -23 23 0 54 -97 86 -209 70 -36 -5 -91 -13
-121 -17 -94 -13 -357 9 -645 54 -195 31 -572 58 -1025 75 -294 11 -350 15
-350 29 0 4 59 73 132 152 72 79 161 179 197 223 l66 78 230 114 c476 235 704
368 1245 724 665 438 771 492 995 507 223 15 348 -71 420 -287 61 -184 156
-240 407 -240 147 0 283 16 551 66 460 86 682 114 895 114 360 0 532 -100 532
-311 0 -128 -63 -213 -172 -233 -21 -4 -38 -11 -38 -16 0 -12 29 -40 41 -40
46 0 138 95 182 188 79 166 10 324 -170 392 -105 39 -197 52 -383 52 -253 1
-476 -29 -927 -121 -245 -51 -367 -65 -512 -59 -154 7 -215 29 -291 107 -45
46 -63 76 -98 162 -56 136 -100 196 -172 231 -67 34 -181 52 -275 45 -214 -16
-392 -107 -1050 -540 -192 -126 -413 -268 -490 -314 -131 -79 -699 -371 -755
-388 -17 -5 17 35 105 126 129 133 545 584 598 647 30 38 35 73 11 93 -9 7
-20 23 -25 36 -12 31 -67 65 -209 129 -261 116 -587 228 -830 284 -518 120
-1446 201 -1825 160 -49 -6 -169 -17 -265 -25 -498 -44 -970 -175 -1218 -338
-100 -66 -111 -71 -128 -56 -9 7 -31 43 -49 80 -45 89 -57 99 -113 99 -59 0
-139 36 -175 79 -32 39 -32 41 -8 73 42 53 39 106 -8 160 -44 52 -48 121 -11
201 34 70 37 99 14 121 -19 20 -28 20 -82 -1 -25 -9 -47 -12 -52 -7 -11 11
-94 226 -110 285 -7 24 -17 50 -22 57 -14 16 -97 14 -172 -4z m118 -55 c24
-24 79 -173 68 -183 -3 -3 -16 -6 -29 -6 -24 0 -31 15 -10 23 22 9 -15 27 -43
20 -38 -9 -52 -23 -39 -39 8 -10 -8 -25 -76 -68 -47 -31 -94 -56 -104 -56 -40
0 -81 81 -81 161 0 48 3 55 42 92 62 59 131 89 196 84 40 -3 59 -10 76 -28z
m90 -249 c18 -7 26 -17 26 -34 0 -21 -7 -27 -37 -35 -54 -14 -235 -62 -255
-68 -31 -9 -20 23 21 60 79 71 179 103 245 77z m103 -165 c3 -9 3 -19 -1 -22
-7 -7 -36 16 -36 28 0 15 30 10 37 -6z m-73 -2 c3 -4 -8 -12 -26 -17 -39 -13
-49 -47 -22 -77 30 -34 75 -21 103 29 9 15 12 15 35 -7 31 -29 32 -38 6 -71
-25 -32 -25 -43 1 -35 18 6 19 4 10 -12 -5 -11 -18 -26 -27 -34 -15 -12 -16
-12 -10 8 11 35 -9 34 -44 -2 -42 -43 -69 -44 -113 -5 -68 59 -70 122 -5 196
29 32 73 46 92 27z m-160 -261 c1 -22 -4 -37 -13 -40 -8 -3 -11 0 -7 7 4 6 -4
22 -18 36 -31 31 -31 31 -6 38 14 4 18 10 14 24 -5 12 -1 11 11 -6 10 -13 18
-39 19 -59z m74 -34 c9 -9 18 -9 37 0 33 15 35 15 35 -3 0 -20 -45 -65 -65
-65 -8 0 -15 6 -15 14 0 7 -6 19 -14 26 -8 6 -12 18 -9 26 6 17 15 18 31 2z
m231 -7 c20 -13 5 -29 -37 -41 -58 -16 -72 -13 -72 13 0 13 3 27 7 30 9 10 86
8 102 -2z m2321 -117 c200 -19 387 -50 418 -70 29 -19 27 -33 -39 -205 -49
-128 -57 -159 -40 -159 15 0 30 25 65 113 41 101 92 205 113 228 11 14 22 15
55 8 63 -15 259 -79 303 -100 22 -11 54 -22 70 -24 41 -5 120 -34 266 -95 98
-41 131 -51 161 -47 l38 5 -96 -101 c-131 -139 -252 -285 -434 -522 -262 -343
-766 -978 -987 -1242 l-143 -173 -73 1 -72 0 43 20 43 19 -6 57 c-39 384 -51
614 -65 1206 -5 235 -10 437 -10 448 0 13 16 27 55 46 30 15 57 24 61 20 8 -7
-13 -241 -28 -309 -5 -27 -14 -48 -20 -48 -7 0 -9 43 -5 133 4 95 3 122 -4 97
-5 -19 -11 -129 -12 -243 -2 -189 0 -209 16 -218 9 -6 17 -18 17 -29 0 -25 45
-77 83 -97 43 -22 123 -20 156 4 14 11 37 46 50 79 21 49 25 77 25 164 1 108
-1 117 -59 220 -11 21 -11 42 0 140 17 137 18 171 6 150 -5 -8 -14 -61 -20
-118 -7 -56 -17 -117 -23 -134 -11 -30 -12 -30 -25 -12 -30 39 2 269 43 311
21 21 32 23 114 23 92 0 175 -14 186 -32 3 -5 -3 -20 -15 -32 -24 -25 -26 -52
-9 -107 16 -55 6 -92 -139 -534 -179 -546 -334 -1053 -358 -1174 -6 -26 -4
-32 6 -29 28 9 59 89 128 329 96 336 186 628 286 924 101 302 151 425 173 425
8 0 32 18 54 40 32 35 38 47 38 85 0 112 -158 189 -385 187 -116 0 -207 -19
-301 -62 -37 -16 -71 -30 -76 -30 -12 0 -5 446 7 474 9 20 38 20 365 -10z
m1048 19 c-21 -2 -55 -2 -75 0 -21 2 -4 4 37 4 41 0 58 -2 38 -4z m-1475 -180
c-7 -315 -7 -320 -33 -348 -32 -34 -68 -33 -76 3 -10 47 -14 53 -25 46 -7 -4
-10 -24 -6 -53 9 -87 -15 -99 -34 -16 -20 88 -33 80 -25 -16 5 -72 4 -81 -7
-67 -8 10 -19 42 -26 72 -7 31 -17 58 -22 61 -12 8 -11 -7 5 -95 9 -45 11 -79
6 -84 -11 -11 -25 22 -34 84 -10 62 -26 110 -37 110 -13 0 -11 -18 11 -105 22
-86 25 -121 11 -130 -15 -9 -27 21 -55 134 -14 58 -30 109 -36 115 -13 13 -8
-20 27 -172 20 -85 23 -116 15 -124 -19 -19 -30 0 -57 98 -31 108 -45 144 -55
144 -11 0 5 -68 41 -178 l31 -93 -29 -37 c-96 -119 -182 -233 -208 -274 -17
-27 -36 -48 -42 -48 -15 0 -47 44 -133 185 -35 58 -66 102 -68 97 -3 -11 59
-123 128 -228 55 -84 57 -92 35 -101 -24 -8 -50 21 -131 145 -40 61 -78 112
-84 112 -13 0 -15 4 63 -115 61 -94 107 -177 107 -195 0 -28 -45 20 -144 154
-60 80 -110 146 -113 146 -15 0 124 -209 204 -307 24 -29 43 -58 43 -65 0 -38
-335 -718 -401 -813 -49 -72 -141 -171 -104 -113 14 22 14 29 4 31 -72 20
-137 45 -204 80 -75 39 -80 44 -83 77 -1 19 -11 89 -22 155 -19 118 -44 355
-37 361 1 2 45 -29 97 -68 176 -131 421 -288 449 -288 25 0 -9 29 -148 128
-75 53 -182 133 -239 179 -56 45 -115 89 -131 98 -26 13 -30 20 -36 86 -12
118 9 533 36 714 14 93 37 175 50 175 18 0 21 -29 5 -45 -8 -9 -13 -22 -10
-30 7 -18 16 -19 30 -5 7 7 20 -10 41 -57 58 -132 214 -362 408 -603 101 -126
196 -221 202 -203 7 19 -10 43 -157 219 -264 317 -440 609 -440 732 0 53 -13
71 -41 54 -33 -21 -33 -8 -2 49 53 99 204 191 441 269 125 41 192 50 210 28 5
-7 15 -47 22 -88 24 -147 143 -510 225 -687 26 -57 38 -74 47 -65 8 8 5 29
-15 84 -14 40 -48 137 -76 215 -72 204 -101 322 -107 435 -2 53 -9 109 -14
124 -6 15 -9 29 -6 31 6 6 200 31 319 42 51 5 171 9 268 10 l176 1 -4 -167z
m-2193 120 c81 -42 81 -46 20 -128 -20 -27 -42 -60 -49 -72 -15 -29 -44 -29
-83 -2 -41 29 -58 74 -49 124 9 50 25 80 53 99 29 21 26 22 108 -21z m330 20
c32 -22 49 -44 50 -62 0 -10 -12 -4 -32 16 -18 16 -41 33 -51 36 -10 4 -15 11
-12 17 9 14 17 13 45 -7z m-73 -123 c27 -24 38 -28 53 -20 28 15 42 -17 38
-88 -2 -46 -7 -57 -21 -60 -22 -4 -57 25 -57 47 0 9 -14 45 -30 79 -41 87 -39
91 17 42z m-124 -144 c10 -15 25 -30 33 -33 8 -3 14 -9 14 -14 0 -6 -8 -5 -19
1 -24 12 -31 13 -31 1 0 -5 45 -32 101 -61 55 -28 99 -54 97 -56 -3 -2 -44 10
-92 27 -97 34 -138 33 -61 -1 138 -61 158 -71 152 -76 -3 -4 -40 6 -82 20
-137 47 -157 28 -23 -23 46 -17 90 -35 98 -41 28 -18 2 -21 -41 -4 -71 26
-133 42 -143 36 -5 -3 15 -18 45 -34 l54 -29 -43 6 c-77 10 -279 100 -312 140
-9 11 -3 18 37 38 26 13 59 28 73 32 14 4 47 17 74 28 47 20 47 21 28 36 -20
16 -20 17 -4 70 l17 55 5 -46 c3 -24 14 -57 23 -72z m537 -5 c6 -13 8 -27 4
-30 -4 -3 -9 0 -11 7 -3 6 -10 12 -18 12 -21 0 -32 22 -39 80 l-6 55 29 -50
c17 -27 35 -61 41 -74z m-96 73 c27 -71 -42 -263 -145 -401 -41 -55 -177 -178
-186 -169 -3 3 20 46 51 95 83 131 99 182 102 326 2 66 3 126 3 133 2 44 60
-46 61 -94 0 -23 33 -58 43 -47 4 3 0 17 -8 29 -9 14 -11 25 -5 29 6 3 10 25
10 49 0 23 5 47 12 54 17 17 55 15 62 -4z m-701 -60 c31 -25 57 -49 57 -54 0
-4 -17 -11 -37 -15 -59 -11 -103 -32 -103 -50 0 -9 9 -29 21 -44 12 -16 19
-38 17 -52 -4 -23 -5 -22 -24 11 -10 19 -49 65 -86 101 -45 44 -64 69 -58 78
13 22 103 71 130 71 15 0 49 -19 83 -46z m4947 -49 c142 -20 206 -37 110 -30
-36 3 -105 10 -155 15 -141 15 -512 23 -595 12 -72 -9 -135 -2 -100 12 53 20
579 14 740 -9z m-5185 -53 c63 -31 62 -29 39 -47 -18 -14 -18 -16 -1 -26 9 -5
17 -17 17 -26 0 -9 7 -25 17 -35 15 -17 14 -18 -15 -18 -34 0 -40 -8 -20 -28
9 -9 7 -12 -9 -12 -12 0 -34 -5 -50 -11 -22 -8 -24 -12 -13 -19 8 -6 28 -10
43 -10 21 0 41 -13 75 -49 26 -27 68 -63 93 -80 71 -47 179 -176 179 -215 0
-26 28 -40 56 -27 22 10 32 7 82 -24 32 -19 63 -35 70 -35 17 0 15 -16 -12
-85 -20 -53 -26 -60 -52 -63 -16 -2 -65 -12 -108 -22 -90 -22 -96 -23 -96 -12
0 4 30 19 66 32 36 14 68 29 72 34 5 9 -97 2 -134 -9 -10 -4 -2 3 19 15 40 22
41 40 1 40 -14 0 -23 5 -22 12 4 19 -29 20 -112 4 -76 -14 -99 -13 -67 5 27
15 20 34 -22 63 -22 15 -48 37 -58 49 l-18 21 30 -19 c17 -10 48 -33 71 -52
49 -39 73 -41 129 -8 72 42 66 81 -8 50 -20 -8 -37 -12 -38 -8 0 5 -1 23 -2
42 -2 29 -11 42 -55 78 -75 61 -99 56 -37 -8 28 -28 41 -47 29 -41 -33 17
-158 137 -178 172 l-19 33 24 -5 c13 -3 61 -21 106 -41 56 -24 85 -32 89 -25
4 6 -2 18 -12 26 -38 28 -179 92 -205 92 -20 0 -30 7 -38 28 -29 69 -42 267
-19 290 14 14 47 7 113 -26z m2851 -189 c-15 -175 -19 -205 -33 -219 -8 -8
-19 -12 -24 -9 -11 8 -11 158 0 208 5 20 5 39 1 42 -10 6 -17 -22 -25 -100
-19 -183 -51 -228 -43 -62 4 78 10 112 26 144 24 45 56 73 85 73 18 0 19 -6
13 -77z m-2529 38 c88 -35 286 -131 281 -136 -3 -3 -26 0 -51 7 -37 9 -48 9
-61 -1 -28 -23 -19 -51 20 -67 62 -26 29 -28 -56 -3 -74 21 -82 22 -96 7 -15
-15 -15 -21 5 -79 23 -69 26 -88 12 -73 -17 17 -132 336 -127 350 7 18 16 18
73 -5z m2943 0 c0 -6 -4 -13 -10 -16 -5 -3 -10 -20 -10 -37 0 -26 -2 -29 -15
-18 -20 16 -19 39 2 62 17 20 33 24 33 9z m-3105 -48 c14 -21 25 -43 25 -50 0
-14 -37 -17 -64 -7 -18 7 -21 39 -5 50 6 3 9 15 6 25 -8 31 10 22 38 -18z
m2360 7 c-3 -6 -33 -28 -65 -50 -116 -79 -404 -395 -462 -507 -25 -50 -41 -59
-46 -28 -9 65 304 406 502 546 71 50 82 56 71 39z m-1868 -57 c-16 -16 -17
-15 -17 17 0 32 1 33 17 17 16 -16 16 -18 0 -34z m1902 -355 c19 -502 60
-1191 78 -1300 15 -95 -36 -14 -152 247 -121 268 -322 738 -344 803 -25 74
-27 115 -5 133 21 18 20 20 115 -236 45 -121 88 -231 95 -245 l14 -25 -7 30
c-3 17 -41 133 -85 260 -77 225 -93 305 -64 305 10 0 25 -35 46 -102 38 -126
124 -372 149 -430 13 -29 20 -36 21 -23 1 16 5 12 20 -15 18 -32 19 -33 20
-11 0 14 -31 144 -69 290 -82 316 -95 375 -87 407 10 37 34 29 46 -14 5 -21
30 -135 54 -254 75 -360 106 -489 106 -440 0 7 -27 148 -59 315 -75 384 -87
465 -72 480 10 9 16 8 27 -7 8 -11 14 -28 14 -37 0 -24 68 -356 80 -394 17
-53 2 64 -35 269 -19 105 -35 197 -35 206 0 15 93 100 110 100 3 0 12 -141 19
-312z m2706 265 c-22 -33 -195 -243 -201 -243 -2 0 -4 2 -4 4 0 7 161 219 188
248 31 34 41 29 17 -9z m-65 22 c0 -2 -58 -83 -130 -180 -71 -97 -171 -234
-220 -305 -50 -70 -109 -148 -131 -172 l-40 -43 17 35 c9 19 61 100 114 180
53 80 141 215 194 300 54 85 105 163 114 173 13 15 82 26 82 12z m-4305 -24
c26 -13 33 -19 20 -19 -28 -1 -106 36 -80 37 11 0 38 -8 60 -18z m4011 -46
c-9 -20 -64 -122 -124 -228 -60 -106 -129 -230 -155 -277 -25 -47 -53 -94 -62
-105 -14 -19 -15 -17 -1 15 48 118 251 513 313 609 40 60 57 53 29 -14z m154
52 c0 -8 -29 -58 -63 -113 -35 -54 -126 -196 -201 -314 -149 -232 -185 -284
-193 -276 -6 6 238 448 324 588 53 85 92 128 119 128 8 0 14 -6 14 -13z
m-4563 -72 c16 -14 22 -25 15 -25 -20 0 -82 31 -82 41 0 18 40 8 67 -16z
m4293 4 c0 -24 -286 -590 -331 -655 -42 -61 -90 -97 -172 -129 -70 -28 -337
-145 -545 -240 -96 -44 -107 -47 -141 -37 -20 6 -45 18 -56 26 -19 15 -18 15
18 16 21 0 48 -7 62 -16 28 -19 65 -5 65 25 0 12 7 18 18 17 18 -1 19 7 8 64
-6 34 -6 34 19 -12 27 -50 34 -55 52 -37 14 14 52 37 76 45 15 5 18 13 13 38
l-6 31 21 -32 c22 -34 39 -34 69 1 7 9 20 16 30 16 21 0 34 15 48 55 10 29 11
29 17 8 10 -30 19 -29 35 5 13 26 14 26 18 5 2 -13 7 -23 12 -23 19 0 38 58
55 165 23 141 36 157 19 23 -16 -127 -17 -171 -4 -163 5 3 19 37 30 76 11 38
29 101 40 139 11 39 25 70 31 70 6 0 8 -8 5 -17 -20 -69 -46 -186 -46 -209 0
-48 18 -15 66 119 37 106 97 227 110 227 2 0 -8 -30 -22 -67 -64 -168 -96
-264 -90 -270 12 -12 51 36 64 78 16 52 65 136 70 121 2 -6 -9 -39 -23 -74
-15 -35 -29 -74 -33 -88 -5 -23 -4 -24 13 -10 20 16 126 230 250 504 76 169
108 226 126 226 5 0 9 -9 9 -21z m-3965 -12 c17 -10 18 -12 3 -15 -9 -2 -34 6
-55 18 l-38 21 35 -7 c19 -3 44 -11 55 -17z m-12 -54 c88 -41 102 -61 25 -34
-75 26 -168 69 -168 77 0 13 66 -7 143 -43z m3871 25 c-12 -38 -161 -356 -189
-405 -15 -24 -29 -42 -32 -39 -11 11 163 414 194 448 22 25 36 23 27 -4z
m-4198 -18 c15 -6 24 -13 21 -16 -8 -9 -67 6 -67 17 0 12 12 11 46 -1z m2418
-11 c34 -27 28 -34 -10 -14 -104 54 -188 -41 -169 -193 13 -107 56 -172 112
-172 35 0 77 49 102 118 l21 57 -5 -45 c-14 -109 -52 -170 -106 -170 -43 0
-104 60 -129 126 -28 76 -27 166 3 224 41 82 125 113 181 69z m-2805 -81 c56
-45 87 -76 81 -82 -13 -13 -42 8 -130 94 -94 89 -70 84 49 -12z m678 41 c179
-63 174 -82 -7 -24 -105 34 -143 55 -101 55 10 0 59 -14 108 -31z m3733 -103
c-23 -52 -48 -102 -55 -112 -14 -18 -14 -18 -15 2 0 43 55 179 89 218 32 36
24 -11 -19 -108z m-110 50 c-1 -6 -10 0 -20 13 -11 13 -20 28 -20 35 1 6 10 0
20 -13 11 -13 20 -28 20 -35z m-3633 -1 c43 -14 89 -32 103 -40 l25 -14 -29
-1 c-34 0 -179 43 -216 65 l-25 14 32 1 c18 0 67 -11 110 -25z m1520 -71 c33
-96 125 -462 120 -477 -7 -22 -167 489 -167 535 0 39 24 10 47 -58z m2063 44
c25 -41 26 -111 2 -158 -31 -62 -102 -64 -102 -2 0 16 14 38 40 62 46 43 55
72 14 45 -14 -9 -29 -14 -32 -10 -7 6 1 13 53 50 19 13 18 14 -11 9 -34 -7
-56 12 -33 27 27 17 49 9 69 -23z m-3647 -15 c32 -9 60 -20 64 -26 4 -6 -3 -8
-18 -3 -13 3 -60 11 -104 17 -115 16 -125 18 -125 30 0 15 102 4 183 -18z
m2138 -53 c-61 -58 -98 -72 -68 -27 20 31 95 87 115 87 11 -1 -6 -22 -47 -60z
m-2044 -35 c23 -9 44 -23 47 -32 7 -18 -29 -202 -49 -250 -13 -30 -17 -33 -57
-32 -24 1 -54 5 -68 9 l-25 8 26 1 c43 2 87 21 103 46 22 34 20 55 -5 55 -18
0 -19 2 -9 15 21 25 4 28 -39 6 -62 -32 -72 -25 -16 11 28 17 45 33 38 35 -18
6 -109 -44 -153 -84 -38 -34 -40 -34 -40 -12 0 63 55 221 84 242 17 12 115 1
163 -18z m2066 -8 c-40 -51 -72 -87 -77 -87 -14 0 -3 21 35 64 41 47 76 66 42
23z m-2643 -52 c0 -7 -81 -27 -87 -21 -3 3 5 10 18 15 25 10 69 14 69 6z
m3887 -42 c-3 -10 -5 -4 -5 12 0 17 2 24 5 18 2 -7 2 -21 0 -30z m128 -51
c-12 -13 -35 24 -35 57 l0 36 20 -44 c11 -24 18 -46 15 -49z m-3325 27 c0 -25
-17 -59 -30 -59 -14 0 -12 54 2 68 18 18 28 15 28 -9z m-399 -23 c-13 -15 -51
-28 -51 -18 0 8 53 40 59 36 2 -2 -1 -10 -8 -18z m1647 -161 c69 -165 193
-450 325 -746 36 -80 69 -158 73 -174 l7 -29 -39 31 c-142 113 -644 677 -644
723 0 50 45 11 175 -152 83 -106 110 -130 49 -45 -102 141 -184 269 -184 289
l0 21 24 -22 c13 -13 65 -80 115 -150 139 -194 164 -215 47 -39 -127 191 -160
247 -152 255 11 11 63 -48 95 -107 26 -48 75 -120 166 -244 8 -11 17 -18 19
-15 3 2 -42 76 -99 162 -107 164 -152 244 -141 254 11 11 54 -38 77 -86 26
-55 140 -233 146 -228 2 3 -26 56 -63 118 -98 168 -142 259 -126 259 5 0 33
-43 62 -96 30 -52 67 -110 83 -127 l27 -32 -30 54 c-97 168 -129 255 -110 291
6 12 15 18 20 14 4 -5 39 -85 78 -179z m-209 162 c8 -11 5 -14 -19 -14 -16 0
-39 -8 -50 -18 -29 -26 -38 -9 -10 20 26 27 61 33 79 12z m2205 -74 c-10 -84
-26 -113 -19 -35 4 35 9 70 12 78 11 29 14 12 7 -43z m-3806 -18 c18 -20 32
-45 32 -60 0 -23 3 -25 48 -25 26 0 53 -4 61 -9 23 -15 -5 -22 -59 -15 -33 4
-55 3 -65 -6 -17 -14 -85 -5 -128 17 -27 13 -28 17 -22 56 4 23 14 54 21 69
13 24 17 26 46 18 18 -6 48 -25 66 -45z m3739 8 c-3 -10 -5 -4 -5 12 0 17 2
24 5 18 2 -7 2 -21 0 -30z m-3634 -50 c-7 -2 -19 -2 -25 0 -7 3 -2 5 12 5 14
0 19 -2 13 -5z m1407 -27 c0 -16 -210 -433 -264 -523 -38 -65 -63 -92 -47 -51
5 13 64 135 130 271 67 137 121 252 121 256 0 13 40 61 51 61 5 0 9 -6 9 -14z
m2037 -33 c-3 -10 -5 -2 -5 17 0 19 2 27 5 18 2 -10 2 -26 0 -35z m8053 -26
c0 -37 -3 -48 -10 -37 -13 20 -13 103 0 95 6 -3 10 -30 10 -58z m-11367 16
c-7 -2 -21 -2 -30 0 -10 3 -4 5 12 5 17 0 24 -2 18 -5z m10407 -8 c10 -12 9
-20 -4 -40 -9 -14 -23 -25 -31 -25 -19 0 -28 35 -15 60 13 24 33 26 50 5z m80
-24 c0 -35 -18 -55 -37 -40 -17 15 -16 30 3 57 19 27 34 20 34 -17z m70 -11
c4 -32 10 -46 23 -48 14 -3 17 4 17 47 0 44 3 51 20 51 11 0 20 -6 21 -12 0
-7 1 -29 2 -48 3 -49 31 -48 35 2 4 45 25 66 47 48 8 -7 15 -19 15 -26 0 -19
70 -64 107 -68 17 -3 40 -9 51 -15 12 -6 36 -11 55 -11 34 0 58 -18 70 -52 11
-31 -3 -47 -69 -79 -122 -58 -334 -240 -334 -287 0 -10 -8 -26 -17 -35 -17
-15 -18 -11 -18 61 -1 42 -6 86 -13 97 -10 17 -11 12 -12 -35 0 -128 -112
-400 -164 -400 -7 0 -21 -9 -31 -20 -27 -30 -61 -36 -405 -80 -173 -22 -436
-57 -584 -76 -250 -34 -271 -35 -300 -21 l-31 16 36 0 c48 1 87 44 138 151 49
104 205 327 302 433 105 115 267 237 417 314 42 22 65 9 72 -38 8 -55 34 -44
40 16 6 60 15 75 41 75 23 0 27 -38 4 -46 -15 -6 -21 -55 -9 -67 4 -3 18 3 32
13 16 14 40 20 71 20 26 0 56 7 67 15 10 8 33 15 50 15 17 0 44 4 60 9 16 5
55 12 87 16 l57 6 0 48 c0 52 6 63 30 59 10 -2 17 -18 20 -48z m-6590 30 c0
-11 -59 -44 -66 -37 -6 6 45 47 57 47 5 0 9 -4 9 -10z m6959 -3 c15 -19 -10
-53 -33 -44 -19 7 -22 43 -3 50 20 9 24 8 36 -6z m-7663 -32 c6 -34 1 -55 -11
-43 -3 3 -9 22 -12 42 -8 48 14 48 23 1z m7055 9 c4 -12 4 -27 -1 -34 -12 -20
-40 -4 -40 23 0 42 27 49 41 11z m514 11 c0 -5 -10 -11 -22 -13 -16 -2 -23 2
-23 13 0 11 7 15 23 13 12 -2 22 -7 22 -13z m-587 -49 c-2 -17 -7 -31 -13 -30
-14 1 -29 49 -21 69 11 29 38 -2 34 -39z m-10516 34 c21 -6 42 -20 48 -30 7
-14 21 -20 43 -20 51 0 78 -11 75 -29 -3 -13 -14 -15 -52 -13 -57 5 -61 -16
-5 -33 75 -22 83 -50 12 -42 -32 4 -62 1 -90 -10 -40 -14 -47 -14 -88 1 -76
29 -126 108 -97 153 19 30 90 40 154 23z m573 -1 c11 -16 5 -16 -60 -4 l-60
12 57 2 c31 0 60 -4 63 -10z m3082 -56 c-2 -16 -4 -5 -4 22 0 28 2 40 4 28 2
-13 2 -35 0 -50z m-3378 43 c9 -10 8 -15 -4 -20 -8 -3 -22 -3 -30 0 -12 5 -13
10 -4 20 6 8 15 14 19 14 4 0 13 -6 19 -14z m10175 -15 c22 -24 13 -41 -20
-41 -29 0 -42 24 -24 45 16 20 23 19 44 -4z m-6222 -74 c-52 -65 -82 -95 -82
-82 0 9 54 80 94 122 50 54 42 28 -12 -40z m-3658 53 c41 -15 30 -30 -21 -30
-56 0 -123 17 -123 30 0 13 111 13 144 0z m3033 -37 c-3 -10 -5 -2 -5 17 0 19
2 27 5 18 2 -10 2 -26 0 -35z m-3170 -12 c27 -5 74 -15 106 -21 31 -6 57 -15
57 -20 0 -5 -46 -11 -102 -12 -87 -3 -100 -5 -82 -15 12 -7 48 -15 80 -18 82
-9 104 -14 104 -25 0 -6 -42 -10 -102 -10 -116 0 -117 -12 -3 -31 145 -24 152
-49 12 -49 -109 0 -107 -14 3 -30 41 -6 84 -13 94 -16 38 -12 -13 -34 -78 -34
-67 0 -108 -15 -65 -24 13 -2 55 -7 93 -10 74 -6 82 -9 71 -25 -4 -7 -46 -11
-106 -11 -58 0 -99 -4 -99 -10 0 -12 24 -17 115 -24 87 -7 115 -15 115 -31 0
-13 -71 -25 -152 -25 -27 0 -48 -4 -48 -9 0 -11 50 -21 114 -22 58 0 101 -13
76 -22 -8 -3 -55 -8 -105 -12 -49 -3 -94 -9 -99 -12 -17 -11 27 -22 94 -22
131 -2 149 -25 28 -35 -93 -8 -118 -13 -118 -26 0 -4 47 -10 105 -12 98 -3
141 -15 121 -35 -3 -4 -53 -10 -109 -14 -56 -4 -104 -8 -107 -8 -2 -1 1 -6 7
-12 5 -5 37 -13 69 -17 l59 -6 -63 -7 c-100 -10 -100 -27 0 -37 62 -5 62 -6
33 -18 -16 -7 -47 -13 -67 -14 -49 0 -64 23 -83 126 -25 140 -64 657 -51 690
6 16 8 16 21 -3 9 -12 34 -25 62 -32z m-149 12 c2 -9 -7 -13 -27 -13 -30 0
-46 11 -34 24 11 11 56 2 61 -11z m3162 -52 c0 -25 -18 1 -25 34 l-6 30 15
-25 c8 -14 15 -32 16 -39z m661 -57 c-39 -60 -87 -131 -108 -157 -21 -27 -45
-62 -53 -78 -16 -31 -53 -39 -83 -16 -16 11 -13 21 33 117 63 131 66 162 12
124 -26 -18 -30 -4 -4 19 19 17 102 50 109 43 3 -2 -6 -21 -20 -43 -24 -38
-42 -83 -34 -83 3 0 25 28 50 63 25 35 53 70 63 78 16 13 16 12 0 -19 -9 -18
-42 -71 -72 -118 -31 -47 -54 -88 -51 -91 3 -3 40 42 83 99 106 143 136 180
141 175 2 -3 -27 -54 -66 -113z m-3812 32 c13 -14 13 -16 -2 -22 -24 -9 -87
15 -87 33 0 12 8 14 37 10 20 -4 43 -13 52 -21z m1299 -84 c34 -31 124 -125
200 -209 75 -84 202 -220 281 -303 79 -83 141 -154 138 -157 -10 -9 -780 376
-843 422 -11 7 -16 16 -13 20 4 3 51 -17 105 -46 108 -57 107 -43 -2 37 -35
26 -64 51 -64 56 0 18 25 6 89 -41 98 -72 211 -145 216 -139 2 2 -46 43 -109
91 -116 90 -178 147 -159 147 10 0 73 -44 233 -161 92 -68 104 -75 99 -61 -2
6 -69 63 -148 126 -132 106 -185 156 -164 156 5 0 57 -37 117 -82 60 -46 136
-103 170 -127 89 -64 38 -11 -99 104 -134 112 -158 138 -153 161 2 15 20 3 83
-55 90 -84 193 -171 202 -171 3 0 -53 61 -126 135 -119 122 -146 155 -123 155
4 0 35 -26 70 -58z m-1300 15 c18 -14 -3 -27 -46 -27 -34 0 -56 25 -33 39 15
10 61 2 79 -12z m2860 -22 c30 -35 29 -80 -2 -100 -29 -19 -52 -11 -72 27 -10
18 -25 31 -44 35 -37 7 -37 12 -4 48 22 23 31 27 62 22 22 -4 46 -17 60 -32z
m706 -46 c-37 -96 -96 -140 -110 -84 -8 34 3 44 15 14 5 -13 10 -18 10 -11 1
7 18 31 39 55 21 23 42 51 46 61 3 10 9 17 12 14 3 -3 -3 -25 -12 -49z m-134
-25 c0 -41 -4 -63 -10 -59 -15 9 -10 125 6 125 2 0 4 -30 4 -66z m7614 20 c24
-23 20 -61 -9 -80 -50 -33 -95 19 -61 71 19 29 47 32 70 9z m-137 -41 c3 -10
14 -37 25 -60 17 -39 17 -53 8 -155 -22 -237 -87 -603 -136 -766 -20 -65 -30
-85 -48 -92 -28 -10 -64 -54 -72 -87 -17 -65 -51 31 -53 147 -2 103 -19 187
-53 253 -43 87 -74 174 -82 232 -4 28 -11 62 -17 76 -9 24 -4 37 53 120 71
106 228 270 302 318 58 36 64 37 73 14z m-7627 -87 c0 -35 -20 -2 -25 40 l-5
39 14 -30 c9 -16 15 -39 16 -49z m-316 35 c32 -20 76 -72 76 -91 0 -19 -21
-10 -64 30 -65 60 -77 50 -25 -22 35 -50 23 -62 -23 -23 -44 37 -50 13 -8 -30
36 -37 35 -65 -2 -65 -32 0 -86 35 -99 64 -16 35 -3 88 29 118 45 43 71 47
116 19z m-254 -6 c0 -14 -50 -103 -64 -114 -14 -12 -16 -9 -16 24 l0 36 -37
-30 c-35 -29 -63 -40 -63 -24 0 16 56 85 79 98 25 14 101 21 101 10z m8534 -9
c62 -26 79 -83 33 -108 -30 -16 -195 -5 -214 15 -20 20 -9 72 20 92 27 19 117
20 161 1z m-8124 -56 c0 -52 -79 -167 -107 -156 -7 3 -23 -6 -35 -19 -21 -25
-48 -33 -48 -16 0 13 49 51 65 51 27 0 64 42 70 78 9 54 23 82 40 82 8 0 15
-9 15 -20z m45 -26 c-17 -56 -30 -72 -20 -24 11 56 16 70 25 70 5 0 3 -21 -5
-46z m-395 -13 c0 -55 -9 -66 -46 -57 -31 8 -33 51 -2 83 35 37 48 30 48 -26z
m775 25 c25 -17 34 -46 14 -46 -6 0 -22 9 -36 20 -42 33 -143 23 -143 -15 0
-7 12 -23 26 -34 23 -18 24 -21 8 -22 -39 -3 -60 3 -86 22 -41 29 -67 25 -74
-11 -7 -35 -28 -39 -44 -10 -25 47 5 76 103 101 87 22 194 19 232 -5z m870
-56 c306 -16 923 -81 955 -102 22 -14 -257 -2 -495 21 -110 11 -290 25 -400
31 -255 13 -723 49 -795 60 -68 11 449 4 735 -10z m-3200 -79 c349 -181 565
-297 565 -304 0 -4 -17 -5 -37 -2 -112 15 -243 37 -278 46 -22 6 -69 15 -105
19 -36 4 -55 8 -43 8 38 3 35 21 -4 27 -80 14 -301 64 -358 81 -97 29 -35 28
88 -1 137 -33 267 -55 267 -45 0 4 -7 10 -15 14 -8 3 -14 11 -13 17 2 7 -61
36 -151 71 -148 56 -194 78 -160 78 9 0 84 -23 168 -51 84 -28 155 -48 158
-45 7 7 -40 28 -172 77 -102 38 -115 44 -87 47 33 3 34 4 15 24 -18 20 -18 21
7 13 14 -4 84 -37 155 -74z m2301 1 c-36 -36 -46 -19 -10 19 16 17 30 25 33
18 2 -6 -8 -23 -23 -37z m7630 33 c-11 -8 -31 -15 -44 -15 -21 0 -22 2 -12 15
7 8 27 15 44 15 29 -1 30 -1 12 -15z m-6746 -50 c234 -20 443 -39 465 -44 l40
-9 -35 -1 c-102 -3 -261 -70 -348 -146 -28 -26 -67 -72 -85 -103 -27 -46 -40
-58 -74 -69 -60 -20 -97 -66 -89 -112 5 -31 -1 -45 -39 -100 -25 -36 -45 -70
-45 -77 0 -7 -18 -27 -40 -44 -22 -17 -40 -40 -40 -50 0 -25 -15 -33 -40 -20
-12 7 -20 21 -20 38 0 15 -9 47 -21 71 -11 25 -24 73 -29 108 -11 80 -45 139
-127 221 -35 35 -75 81 -88 103 -16 25 -44 48 -78 66 l-52 27 30 6 30 6 -26
17 c-50 33 -255 50 -316 26 l-28 -11 35 -15 c20 -9 49 -13 70 -9 21 3 45 0 60
-8 14 -8 49 -26 77 -41 56 -28 240 -196 305 -278 31 -40 38 -57 38 -94 0 -59
48 -172 105 -247 52 -70 75 -152 75 -270 0 -88 -5 -105 -36 -117 -29 -10 -30
-20 -5 -43 18 -16 18 -22 6 -61 -29 -97 -176 -342 -245 -410 -39 -38 -44 -40
-113 -43 -323 -17 -918 357 -1140 716 -65 105 -237 449 -237 475 0 11 -14 42
-31 69 -17 27 -29 51 -26 55 3 3 28 0 56 -7 37 -9 55 -9 71 0 12 6 28 9 35 6
27 -10 57 -90 87 -230 46 -215 114 -373 189 -441 35 -32 79 -47 79 -27 0 4
-27 38 -60 75 -104 117 -141 203 -165 385 -8 59 -19 123 -25 142 -5 19 -10 36
-10 38 0 2 19 1 41 -3 l42 -7 -34 31 c-27 24 -31 33 -20 40 8 5 11 16 8 25
-11 27 9 26 49 -3 61 -43 69 -58 69 -122 1 -50 5 -63 29 -88 29 -31 102 -68
113 -58 3 4 -17 28 -46 55 -43 40 -51 54 -51 84 0 97 -148 214 -302 239 -67
11 -155 45 -145 56 4 3 24 0 46 -7 46 -15 60 -11 228 61 151 65 220 77 310 56
84 -21 102 -21 109 -2 4 8 10 15 15 15 5 0 4 -12 -1 -26 -24 -63 -8 -103 82
-202 112 -123 149 -206 149 -337 0 -96 -8 -133 -63 -269 -65 -161 -55 -234 35
-279 46 -23 139 -25 188 -5 99 42 153 132 169 285 6 54 20 149 31 212 10 62
19 156 19 207 0 69 3 94 13 94 6 0 61 -25 122 -55 60 -30 114 -55 119 -55 24
0 -34 43 -113 84 -148 77 -165 104 -26 41 83 -38 137 -44 77 -9 -67 39 -69 41
-48 57 17 13 17 14 -14 27 -17 7 -36 24 -40 36 -5 13 -31 34 -60 49 -28 14
-53 32 -56 40 -3 7 -22 20 -43 28 -49 20 -158 40 -172 31 -14 -9 24 -49 86
-89 54 -36 156 -135 138 -135 -6 0 -39 25 -74 56 -34 31 -87 72 -116 91 -59
37 -83 75 -83 127 0 53 33 74 118 74 71 -1 124 16 170 53 26 21 33 21 197 15
94 -3 361 -22 595 -41z m6906 -17 c-9 -74 -26 -102 -26 -41 0 55 10 103 23
103 6 0 7 -23 3 -62z m-10442 -2 c-9 -14 -21 -26 -26 -26 -5 0 -5 6 -1 13 29
45 38 56 41 48 2 -6 -4 -21 -14 -35z m2429 -41 c-27 -100 -18 -121 101 -244
57 -58 111 -121 120 -139 24 -48 30 -119 17 -209 -6 -43 -15 -145 -20 -228 -5
-91 -14 -164 -23 -185 -31 -73 -119 -118 -206 -106 -56 7 -102 40 -102 71 0
13 21 76 46 140 122 313 112 431 -50 603 -39 42 -62 72 -51 68 61 -25 176 -58
218 -63 43 -5 47 -4 47 16 0 14 -11 26 -33 37 -18 9 -40 29 -49 45 -10 16 -25
29 -34 29 -12 0 -15 6 -11 21 4 15 -1 23 -20 30 -24 9 -24 11 -10 32 8 13 17
37 19 53 3 29 3 29 -57 32 l-60 4 80 32 c44 18 83 30 87 27 3 -3 -1 -33 -9
-66z m-2219 1 c58 -19 118 -42 133 -51 l28 -16 -35 6 c-71 12 -250 68 -261 81
-19 23 20 17 135 -20z m1666 14 c-20 -13 -83 -13 -75 0 3 6 25 10 48 10 31 0
38 -3 27 -10z m-325 -40 c0 -10 -12 -16 -32 -18 -37 -4 -42 4 -15 24 21 17 47
14 47 -6z m3523 3 c-10 -2 -28 -2 -40 0 -13 2 -5 4 17 4 22 1 32 -1 23 -4z
m-2778 -23 c0 -12 -45 -24 -60 -15 -5 3 -8 11 -5 16 8 12 65 12 65 -1z m3065
-21 c55 -10 240 -43 410 -73 171 -30 445 -79 610 -110 165 -30 404 -71 530
-92 127 -20 234 -40 238 -44 25 -22 -1043 134 -1722 251 -235 41 -299 62 -255
87 20 11 45 9 189 -19z m5005 17 c0 -8 -3 -22 -6 -31 -9 -23 -23 0 -17 26 6
22 23 26 23 5z m-5655 -25 l20 -8 -20 -6 c-11 -3 -115 -22 -231 -42 -116 -20
-226 -40 -245 -45 -40 -12 -61 2 -38 25 41 42 448 102 514 76z m285 -41 c74
-10 288 -44 475 -74 187 -30 493 -78 680 -106 187 -28 452 -69 590 -91 137
-21 268 -39 291 -39 24 0 46 -4 49 -10 10 -16 -264 -12 -730 10 -469 22 -773
25 -945 9 -196 -18 -281 -44 -348 -109 -44 -42 -180 -106 -273 -130 -78 -19
-268 -123 -328 -179 -36 -34 -44 -68 -11 -51 26 14 26 11 -14 -68 -44 -87 -52
-120 -76 -299 -49 -358 -125 -535 -297 -693 -64 -58 -103 -87 -103 -76 0 3 23
31 51 63 56 64 117 177 179 334 42 103 90 259 90 287 0 35 -19 -7 -45 -98 -68
-242 -175 -431 -329 -586 -123 -123 -232 -184 -325 -184 l-46 1 103 53 c178
92 166 106 -16 21 -65 -30 -122 -55 -125 -55 -20 0 0 22 53 59 72 51 247 217
238 226 -3 4 -16 1 -28 -5 -21 -11 -21 -10 3 27 30 48 99 209 126 292 23 72
25 81 12 81 -7 0 -38 -64 -71 -148 -21 -54 -23 -29 -6 65 9 48 25 165 36 258
21 186 43 281 89 393 61 148 127 232 211 272 25 11 68 34 95 50 28 16 69 36
93 44 36 13 42 13 42 0 0 -23 14 -17 103 50 101 75 139 90 216 84 64 -5 117
-29 192 -88 28 -22 55 -40 60 -40 22 0 6 41 -31 79 -47 48 -59 85 -39 120 27
47 41 38 37 -25 -4 -81 16 -78 60 10 41 79 37 86 -45 86 -54 0 -64 8 -38 30
13 11 13 15 0 41 -8 15 -15 39 -15 52 0 13 -9 36 -21 51 -11 14 -17 26 -12 26
4 0 69 -9 143 -20z m-2783 -37 c-3 -10 -5 -2 -5 17 0 19 2 27 5 18 2 -10 2
-26 0 -35z m7348 -42 c-15 -30 -54 -49 -74 -36 -20 12 -11 31 22 46 18 8 39
28 47 45 l15 32 3 -28 c2 -16 -4 -42 -13 -59z m-10016 60 c25 -16 4 -41 -34
-41 -39 0 -42 5 -18 32 18 20 31 22 52 9z m4138 -49 c-20 -20 -37 -34 -37 -30
0 13 62 79 68 73 3 -3 -11 -22 -31 -43z m6601 21 c-10 -2 -26 -2 -35 0 -10 3
-2 5 17 5 19 0 27 -2 18 -5z m-5484 -58 c-19 -30 -54 -52 -54 -35 0 14 46 60
60 60 6 0 3 -11 -6 -25z m5438 14 c81 -17 101 -33 93 -75 -8 -45 -122 -325
-138 -341 -9 -8 -26 -9 -62 -2 -52 10 -75 29 -75 63 0 39 69 338 81 352 14 17
31 17 101 3z m-5382 -65 c0 -31 -2 -35 -15 -24 -16 13 -20 42 -8 53 15 15 23
5 23 -29z m4724 30 c9 -3 16 -11 16 -17 0 -6 25 -64 55 -129 56 -120 79 -208
56 -208 -13 0 -117 211 -145 293 -20 58 -15 74 18 61z m-10346 -126 c-3 -90
-10 -134 -23 -163 -10 -22 -21 -73 -24 -114 -9 -106 -20 -109 -109 -35 -38 32
-88 74 -110 91 -32 26 -44 46 -57 90 -9 31 -34 92 -56 135 -50 100 -51 112 -1
103 20 -4 42 -11 48 -16 16 -13 44 -101 44 -136 0 -15 5 -45 11 -66 11 -41 38
-58 112 -72 54 -10 48 11 -10 36 -42 18 -45 22 -28 29 11 5 34 9 50 10 l30 1
-25 14 c-14 8 -37 14 -52 15 -15 0 -30 5 -33 10 -4 6 9 10 31 10 l37 0 -23 25
-23 25 31 0 c32 0 53 17 30 25 -7 2 -32 9 -55 15 -52 13 -57 28 -8 22 19 -2
43 -1 52 3 17 6 17 7 0 20 -17 13 -17 14 4 20 23 8 107 21 143 24 17 1 18 -7
14 -121z m244 100 c17 -12 47 -27 67 -34 32 -11 39 -20 69 -90 18 -44 30 -84
28 -91 -4 -10 -106 -47 -111 -40 -1 1 2 40 6 87 8 88 -2 125 -20 77 -6 -15
-13 -57 -17 -94 -4 -38 -13 -76 -21 -85 -18 -21 -97 -58 -120 -57 -14 0 -13 2
5 9 30 13 28 28 -5 35 -68 14 -87 21 -91 34 -4 11 6 13 46 9 28 -3 56 -1 63 3
13 7 6 11 -68 40 -38 14 -27 31 18 27 55 -4 61 15 12 41 l-38 20 38 1 c40 0
49 22 11 28 -10 1 -30 5 -43 8 -43 9 -2 24 48 17 35 -5 43 -3 39 8 -2 7 -19
18 -37 23 l-33 9 34 18 c45 24 84 23 120 -3z m9920 2 c51 -15 68 -42 68 -113
0 -65 -53 -299 -101 -447 -46 -142 -163 -354 -210 -383 -27 -17 -188 87 -319
205 -207 186 -632 611 -618 619 19 10 206 34 588 75 184 19 367 39 405 43 103
12 146 12 187 1z m-8840 -62 c35 -15 45 -24 36 -30 -10 -6 -8 -13 11 -28 26
-22 19 -25 -25 -11 -55 18 -84 21 -84 11 0 -13 146 -81 245 -114 81 -27 121
-46 98 -46 -7 0 -69 19 -138 42 -68 23 -127 39 -131 36 -13 -13 9 -27 96 -64
100 -41 115 -60 20 -24 -33 12 -63 20 -66 17 -14 -13 15 -33 125 -85 64 -30
111 -57 104 -59 -6 -2 -25 3 -42 11 -16 9 -42 16 -56 16 -14 0 -58 18 -98 40
-90 49 -182 84 -317 120 -95 26 -101 29 -59 29 61 1 77 16 95 86 24 94 18 88
80 81 31 -3 79 -16 106 -28z m553 9 c0 -26 -20 -25 -23 2 -3 16 1 22 10 19 7
-3 13 -12 13 -21z m3265 4 c0 -10 -51 -22 -89 -20 -18 1 -11 5 24 14 64 17 65
17 65 6z m3600 -19 c0 -5 -17 -14 -37 -20 -43 -12 -319 -36 -349 -30 -10 2 46
15 126 30 147 26 260 35 260 20z m-3132 -46 c5 -44 -10 -51 -61 -28 -78 35
-75 65 6 60 49 -3 52 -5 55 -32z m-493 -1 c-85 -26 -469 -89 -427 -69 21 10
405 82 437 82 28 0 27 -1 -10 -13z m332 -1 c2 -7 -15 -14 -42 -17 -25 -4 -59
-14 -75 -22 -20 -10 -42 -14 -64 -10 -20 4 -85 -3 -162 -19 -187 -36 -271 -51
-531 -91 -251 -38 -273 -40 -273 -25 0 12 5 13 190 40 184 27 610 102 760 134
119 25 191 29 197 10z m3693 -241 c241 -255 279 -298 205 -236 -68 56 -257
251 -335 343 -84 100 -135 132 -111 69 39 -103 383 -437 646 -627 39 -27 111
-73 160 -102 96 -55 142 -90 95 -71 -14 5 -74 32 -134 61 -126 59 -166 63 -91
8 51 -38 141 -86 258 -137 37 -16 70 -37 73 -46 7 -16 -39 -95 -56 -95 -5 0
-10 21 -12 47 -3 41 -7 49 -33 62 -182 92 -503 340 -562 434 -24 39 -286 318
-305 325 -4 2 -5 -3 -2 -12 12 -30 -3 -16 -70 69 -37 47 -72 85 -77 85 -19 0
-8 -40 24 -86 111 -162 205 -294 233 -326 36 -41 52 -84 37 -99 -5 -5 -69 -27
-141 -49 -152 -46 -222 -76 -222 -96 0 -8 -5 -14 -11 -14 -6 0 -71 32 -145 71
-156 82 -142 52 -119 271 15 141 29 191 61 220 11 9 59 32 109 50 57 21 91 39
93 50 5 27 -29 29 -106 8 -79 -22 -118 -25 -127 -10 -4 6 7 10 25 10 18 0 55
7 83 15 56 16 186 32 282 34 l61 1 214 -227z m-6976 113 c60 -90 139 -242 134
-258 -2 -5 -30 41 -63 104 -33 62 -82 146 -109 188 -27 41 -41 68 -32 61 9 -8
41 -51 70 -95z m2142 70 c3 -7 -2 -31 -11 -52 -13 -30 -18 -36 -25 -24 -13 20
-12 47 0 71 12 22 28 25 36 5z m-3693 -13 c-7 -2 -21 -2 -30 0 -10 3 -4 5 12
5 17 0 24 -2 18 -5z m245 0 c-21 -2 -55 -2 -75 0 -21 2 -4 4 37 4 41 0 58 -2
38 -4z m5694 -3 l38 -11 -47 -57 c-89 -110 -181 -341 -233 -590 -39 -191 -40
-191 -67 -209 -32 -21 -194 -13 -458 22 -234 31 -325 54 -354 89 -26 31 27
196 107 336 27 47 52 95 56 107 12 37 195 166 261 184 22 6 81 28 130 49 99
42 145 56 250 75 87 16 267 18 317 5z m118 4 c0 -3 -15 -23 -33 -44 -18 -22
-59 -88 -91 -147 -32 -59 -67 -117 -78 -128 l-20 -20 7 25 c17 58 66 150 114
214 28 38 51 77 51 87 0 14 7 19 25 19 14 0 25 -3 25 -6z m1750 -3 c-24 -15
-238 -33 -257 -22 -12 6 6 11 63 15 43 4 88 8 99 10 47 7 110 5 95 -3z m-3160
-9 c0 -5 -6 -16 -13 -26 -11 -16 -17 -16 -33 -6 -18 11 -26 9 -61 -14 -35 -23
-48 -27 -85 -21 -36 5 -448 -60 -713 -112 -26 -5 -28 -4 -17 10 16 19 47 26
376 82 144 24 315 55 381 69 130 27 165 30 165 18z m-672 -9 c-10 -2 -26 -2
-35 0 -10 3 -2 5 17 5 19 0 27 -2 18 -5z m2885 -4 c229 -14 271 -23 157 -33
-110 -9 -462 10 -520 28 -45 14 -44 14 73 15 66 1 196 -4 290 -10z m-473 -33
c140 -27 279 -42 513 -55 89 -5 164 -14 170 -20 15 -15 -46 -346 -69 -372 -9
-10 -46 -28 -83 -40 -160 -53 -399 -167 -663 -317 -97 -56 -190 -104 -205
-108 -15 -4 -40 -20 -55 -35 -15 -16 -33 -29 -41 -29 -8 0 -40 17 -71 37 -66
44 -71 59 -63 201 14 280 170 719 270 763 32 13 152 3 297 -25z m945 -22 c10
-4 8 -16 -6 -55 -11 -28 -20 -62 -21 -77 -1 -15 -8 -36 -15 -47 -6 -11 -15
-57 -19 -102 l-7 -81 -63 -16 c-86 -22 -102 -20 -115 8 -19 41 39 330 74 367
18 19 26 21 89 14 39 -3 76 -9 83 -11z m50 -70 c-17 -83 -43 -134 -31 -59 10
56 37 147 42 142 3 -2 -3 -40 -11 -83z m140 75 c4 -5 -1 -26 -10 -45 -38 -81
-60 -274 -31 -274 20 0 27 -27 11 -40 -28 -23 -50 -8 -53 38 -3 45 30 259 47
305 11 28 25 35 36 16z m296 -51 c-6 -29 -20 -118 -31 -198 -12 -90 -25 -150
-35 -159 -12 -13 -24 -12 -97 8 -46 12 -89 28 -97 36 -11 11 -11 29 0 115 12
96 11 103 -6 116 -10 7 -23 15 -29 17 -19 7 33 54 86 77 27 12 83 25 124 30
42 4 78 11 81 14 13 13 14 -5 4 -56z m-8960 32 c76 -15 157 -56 180 -94 18
-28 19 -42 13 -137 -7 -121 4 -169 26 -105 6 20 23 44 36 53 20 13 24 23 23
67 l0 51 -16 -37 c-21 -52 -37 -49 -29 4 10 60 21 71 55 53 14 -8 41 -28 60
-44 l34 -30 -107 -112 c-318 -332 -545 -880 -519 -1257 3 -45 3 -82 -1 -82 -4
0 -53 23 -108 52 -260 133 -441 332 -524 575 -105 309 -38 618 185 843 79 80
157 128 269 165 126 41 310 56 423 35z m577 -16 c24 -7 30 -24 8 -24 -24 0
-30 -21 -7 -27 28 -7 27 -17 -4 -37 -38 -25 -45 -20 -45 32 0 62 4 67 48 56z
m4982 0 c0 -10 -165 -82 -225 -98 -81 -20 -290 -56 -330 -56 -33 0 -72 31 -61
48 6 10 105 30 406 82 173 29 210 34 210 24z m5405 -76 c21 -64 78 -178 117
-236 23 -33 33 -41 43 -32 19 16 27 -3 11 -25 -8 -11 -20 -16 -29 -12 -17 6
-95 155 -153 290 -38 89 -40 94 -20 78 8 -7 22 -35 31 -63z m-9413 38 c83 -17
88 -21 88 -55 0 -37 -132 -452 -154 -486 -17 -26 -18 -26 -37 -9 -26 23 -24
32 6 26 41 -7 30 23 -20 58 -25 17 -43 35 -40 40 3 5 26 7 50 3 53 -7 56 3 15
37 -45 37 -59 120 -35 198 29 94 48 133 68 143 18 10 18 11 -4 35 -26 28 -25
28 63 10z m281 3 c69 -36 158 -92 153 -96 -5 -5 -136 64 -171 91 -24 18 -13
21 18 5z m2932 -20 c12 -19 -2 -21 -32 -5 l-28 15 27 1 c15 0 30 -5 33 -11z
m-3770 -25 c6 -9 22 -32 37 -50 31 -41 42 -100 63 -337 19 -222 40 -697 32
-729 -8 -32 -30 -41 -62 -26 -31 14 -80 114 -155 313 -45 121 -53 154 -60 245
-9 110 -14 135 -37 161 -19 23 -27 177 -14 294 9 85 13 102 33 117 50 38 143
45 163 12z m85 -4 c0 -11 -4 -20 -10 -20 -5 0 -10 9 -10 20 0 11 5 20 10 20 6
0 10 -9 10 -20z m8439 -26 c22 -28 28 -50 11 -39 -5 3 -19 19 -30 35 -26 37
-9 40 19 4z m1854 1 c-4 -15 -36 -12 -41 3 -3 9 3 13 19 10 13 -1 23 -7 22
-13z m-9568 -17 c37 -17 31 -28 -12 -21 -35 6 -37 5 -24 -11 8 -10 27 -24 42
-32 17 -8 26 -20 23 -28 -12 -30 105 -86 181 -86 37 0 75 -25 75 -49 0 -10
-17 -43 -37 -73 -21 -29 -105 -153 -187 -273 -152 -224 -345 -496 -390 -550
-23 -28 -25 -28 -26 -8 0 11 -14 33 -31 48 l-32 26 38 122 c20 67 41 126 45
130 4 4 32 -21 63 -57 l55 -66 26 44 c14 25 26 49 26 55 0 5 19 26 42 45 23
20 37 36 32 36 -5 0 -19 8 -32 18 -22 17 -22 17 23 14 42 -4 45 -3 45 21 0 16
10 33 28 46 l27 21 -30 25 c-16 14 -33 25 -36 25 -15 0 -161 71 -157 76 3 3
53 -13 112 -36 105 -39 146 -48 146 -31 0 15 -23 28 -140 78 l-115 50 -3 37
c-4 46 17 113 77 241 39 82 101 175 117 175 1 0 15 -5 29 -12z m-1066 -226
c-9 -74 -15 -99 -21 -87 -25 43 -79 220 -74 239 3 13 25 33 53 49 l48 26 3
-62 c2 -34 -2 -109 -9 -165z m1559 188 c14 -9 11 -10 -13 -5 -43 8 -85 26 -85
36 0 9 70 -13 98 -31z m2532 20 c-8 -5 -46 -9 -85 -9 -57 1 -63 3 -35 9 55 12
138 12 120 0z m512 -10 c-31 -26 -129 -55 -228 -70 -88 -13 -170 -10 -167 5 3
21 281 83 378 84 l40 0 -23 -19z m-4146 -5 c18 -15 18 -15 -10 -13 -16 2 -31
9 -34 16 -5 17 20 15 44 -3z m4880 -17 c-3 -18 -33 -87 -65 -153 -33 -66 -69
-154 -81 -195 -12 -41 -29 -88 -37 -103 -27 -54 -35 -141 -18 -206 10 -40 15
-107 15 -210 0 -148 0 -151 -22 -156 -163 -38 -328 -63 -328 -50 0 3 14 33 31
67 17 34 51 120 75 191 25 71 62 161 84 201 75 137 155 360 169 471 6 48 7 50
44 56 50 8 65 23 46 45 -12 15 -9 20 21 45 19 16 43 29 53 29 17 0 19 -5 13
-32z m-3830 -73 c32 -30 55 -54 49 -54 -5 0 -37 24 -70 54 -33 30 -55 55 -49
55 6 0 37 -25 70 -55z m2664 -90 c0 -80 -4 -145 -9 -145 -11 0 -21 36 -21 80
0 54 -19 110 -45 136 -37 37 -12 72 53 73 22 1 22 0 22 -144z m-2756 86 c31
-34 3 -24 -30 10 -21 23 -23 29 -9 21 11 -5 29 -20 39 -31z m2623 -73 c-6
-120 -17 -165 -43 -175 -26 -10 -45 20 -56 88 -14 79 -4 139 23 146 25 7 24
19 -3 26 -31 8 -54 -15 -67 -68 -17 -69 -14 -146 9 -190 11 -21 18 -40 16 -43
-2 -2 -18 4 -35 12 -62 32 -77 112 -40 210 29 80 65 106 141 106 l61 0 -6
-112z m-2768 57 c2 -3 -1 -5 -8 -5 -14 0 -71 28 -71 35 0 5 70 -22 79 -30z
m3241 29 c0 -3 -4 -14 -10 -24 -11 -20 -33 -27 -133 -40 -40 -5 -91 -12 -114
-16 -35 -5 -43 -4 -43 9 0 18 32 30 155 56 93 20 145 25 145 15z m-4666 -62
c14 -27 52 -114 84 -193 245 -592 292 -709 292 -725 0 -14 -9 -9 -41 21 -61
60 -76 92 -93 193 -20 125 -48 181 -104 207 -76 35 -114 151 -76 231 16 34 16
34 -16 64 -22 20 -31 36 -27 50 3 11 -3 26 -14 36 -14 13 -18 26 -14 44 5 21
-1 32 -32 59 -36 32 -36 34 -18 47 28 21 32 18 59 -34z m2379 -119 c52 -79
113 -165 136 -192 40 -47 52 -69 31 -56 -32 20 -270 363 -270 389 0 13 -2 16
103 -141z m5520 44 c-18 -69 -40 -93 -30 -34 6 40 35 112 42 105 3 -3 -3 -35
-12 -71z m-8005 36 c2 -8 -16 -21 -42 -33 -52 -22 -56 -31 -23 -45 25 -12 36
-67 16 -91 -17 -21 -60 -18 -66 5 -4 16 -11 18 -39 14 -26 -4 -34 -2 -34 10 0
8 11 18 24 21 14 3 27 15 31 26 3 11 27 40 52 65 44 44 72 54 81 28z m4720 1
c-20 -20 -149 -54 -205 -54 -42 0 -55 11 -30 27 21 13 159 41 207 42 40 1 43
0 28 -15z m5822 -23 c0 -16 -9 -39 -21 -52 l-20 -24 6 40 c9 59 15 76 26 70 5
-4 9 -19 9 -34z m-6190 -41 c0 -14 7 -37 14 -52 14 -26 13 -28 -3 -28 -22 0
-31 27 -31 90 0 33 3 41 10 30 5 -8 10 -26 10 -40z m-4294 -72 c25 -75 27 -97
26 -223 0 -77 -4 -150 -9 -161 -7 -19 -21 -5 -121 120 -121 151 -150 192 -140
201 3 4 21 -1 38 -10 18 -9 53 -18 78 -20 25 -2 49 -9 53 -16 4 -7 15 -53 24
-103 17 -95 28 -126 42 -112 11 11 6 185 -8 237 -26 105 -32 137 -26 152 4 10
9 17 11 17 3 0 17 -37 32 -82z m4644 66 c0 -19 -197 -68 -220 -54 -17 11 0 19
79 41 65 17 141 24 141 13z m-3020 -28 c0 -14 -4 -28 -10 -31 -5 -3 -10 -17
-10 -30 0 -19 -4 -22 -21 -18 -19 5 -21 3 -14 -26 7 -33 -4 -41 -24 -17 -14
16 -4 47 35 106 30 46 44 51 44 16z m3648 15 c10 -6 8 -10 -10 -14 -33 -9 -48
-8 -48 2 0 8 13 14 40 20 3 0 11 -3 18 -8z m3782 -31 c-8 -6 -24 -9 -35 -9
-15 0 -13 4 10 14 32 14 49 10 25 -5z m320 -86 c36 -37 52 -58 35 -46 -39 27
-146 138 -120 124 11 -6 49 -41 85 -78z m-8637 -95 c50 -75 115 -149 132 -149
7 0 16 8 19 18 20 66 -11 -95 -36 -183 -39 -140 -57 -185 -74 -185 -7 0 -38
24 -68 53 l-55 52 -10 210 c-6 116 -11 244 -11 285 l0 75 33 -60 c18 -33 49
-85 70 -116z m7516 160 c28 -6 53 -15 56 -20 21 -32 -92 -101 -189 -115 l-49
-7 5 61 c2 33 10 67 17 76 16 19 86 21 160 5z m1041 -123 c192 -186 360 -309
463 -340 69 -21 -85 -539 -174 -587 -11 -6 -23 -8 -26 -5 -3 3 2 52 11 110 13
85 14 114 4 155 -13 58 -7 72 22 46 11 -10 23 -15 28 -11 4 5 -12 25 -34 45
-24 21 -57 67 -77 108 -35 69 -57 97 -57 72 0 -7 14 -54 30 -106 17 -52 35
-135 40 -185 16 -159 -12 -261 -55 -201 -13 18 -45 12 -45 -8 0 -24 78 -85
175 -138 55 -30 177 -97 270 -150 190 -108 277 -150 333 -158 48 -8 107 -49
167 -115 46 -51 58 -72 86 -148 20 -53 154 -251 320 -473 82 -109 159 -217
170 -238 10 -22 29 -85 40 -142 26 -134 46 -210 70 -275 29 -80 26 -92 -18
-91 -21 0 -32 3 -25 6 22 9 13 34 -19 47 l-30 13 23 15 23 16 -37 16 c-52 22
-61 21 -47 -6 9 -17 9 -23 0 -26 -8 -3 -3 -15 15 -33 34 -36 28 -44 -14 -19
-45 28 -122 135 -122 171 0 16 1 29 3 29 2 0 38 -18 81 -40 76 -40 106 -48
106 -31 0 10 -67 71 -78 71 -4 0 -22 13 -40 29 -30 28 -32 35 -32 93 0 49 -6
72 -24 102 -13 22 -22 46 -19 53 6 16 -24 53 -43 53 -9 0 -14 -18 -16 -52 -6
-101 -43 -60 -68 75 -7 40 -23 83 -38 105 -14 20 -69 102 -122 182 -53 80
-104 151 -113 159 -24 20 -21 40 8 47 15 4 25 13 25 24 0 21 -86 103 -100 95
-5 -3 -11 -1 -15 5 -3 5 -19 10 -35 10 -45 0 -56 8 -116 81 -40 49 -66 72 -86
76 -16 3 -31 10 -34 14 -3 5 -10 9 -16 9 -5 0 2 -20 16 -45 15 -25 23 -45 19
-45 -4 0 -55 14 -113 31 -58 16 -193 52 -301 79 -246 62 -333 93 -541 191 -92
44 -200 89 -239 102 l-71 22 6 120 c4 66 13 156 22 200 30 164 30 152 7 132
-27 -24 -41 -75 -54 -198 -5 -57 -12 -105 -14 -108 -3 -2 -100 -23 -217 -47
-142 -29 -233 -43 -273 -41 l-60 2 -23 45 c-55 112 -104 440 -106 709 -1 136
2 165 14 171 8 4 74 17 145 29 72 12 183 31 247 43 101 18 122 19 150 7 27
-11 130 -107 181 -168 18 -22 52 -27 77 -11 23 14 -31 110 -103 184 -32 32
-56 60 -55 61 2 2 75 24 163 48 88 25 171 50 185 56 14 5 33 10 43 10 10 1 78
-57 157 -133z m-1466 108 c8 -20 8 -63 0 -102 l-6 -30 -47 16 c-61 20 -91 41
-91 62 0 45 129 94 144 54z m1107 0 c-18 -8 -38 -13 -45 -11 -14 6 32 26 59
26 14 -1 10 -5 -14 -15z m-4331 -2 c0 -11 -68 -32 -130 -39 -33 -4 -50 -2 -50
5 0 10 24 19 95 35 35 8 85 7 85 -1z m-2690 -104 c0 -15 -8 -8 -29 26 -29 46
-26 57 4 16 14 -19 25 -38 25 -42z m2458 60 c-4 -12 -91 -48 -116 -48 -22 0
-9 33 18 47 33 17 103 17 98 1z m4087 -5 c41 -19 44 -31 13 -38 -81 -18 -115
-25 -132 -25 -18 0 -18 1 -1 28 35 56 61 63 120 35z m-803 -50 c46 -44 55 -48
112 -53 l61 -5 2 -85 c9 -324 26 -473 80 -710 l6 -25 -23 20 c-13 11 -42 50
-66 88 -49 74 -76 91 -43 25 31 -61 73 -121 134 -189 61 -68 83 -113 68 -138
-47 -76 -288 -37 -818 131 -402 127 -545 155 -620 123 -22 -9 -60 -20 -84 -23
-24 -4 -46 -12 -48 -18 -2 -7 21 -26 51 -44 31 -17 95 -62 143 -100 48 -38 89
-67 92 -64 3 2 -33 43 -79 89 -123 124 -104 122 55 -4 84 -67 79 -40 -8 42
-43 39 -77 78 -77 85 0 22 49 -10 133 -88 l77 -72 -27 -51 c-19 -35 -92 -116
-219 -242 -216 -216 -252 -268 -240 -350 9 -54 69 -138 153 -211 90 -78 203
-160 261 -189 28 -14 52 -30 52 -34 0 -5 10 -11 23 -15 30 -7 101 -69 125
-109 26 -43 36 -112 19 -129 -12 -10 -12 -21 -1 -63 20 -82 26 -125 16 -125
-6 0 -32 15 -58 33 -55 36 -68 69 -35 87 31 16 26 40 -23 106 -25 32 -48 72
-52 88 -8 34 -24 17 -24 -27 0 -19 -7 -31 -24 -39 -29 -13 -56 -5 -56 17 0 18
12 19 28 3 17 -17 22 -6 15 36 -3 21 -13 40 -22 44 -9 3 -22 12 -29 19 -7 7
-24 13 -36 13 -12 0 -35 14 -52 31 -50 53 -289 205 -440 280 -79 39 -155 80
-169 91 -37 29 -31 59 21 124 90 110 114 188 114 367 l0 112 92 92 91 92 66
-56 c103 -86 211 -166 217 -161 3 3 -34 41 -82 84 -159 143 -189 172 -182 179
10 10 77 -31 193 -119 55 -42 104 -76 108 -76 28 0 -42 67 -189 181 l-73 56
60 84 c61 85 115 149 127 149 4 0 27 -14 52 -30 51 -34 66 -23 26 19 -55 57
-19 47 70 -21 75 -56 86 -46 22 20 -31 31 -59 67 -63 80 -23 78 -183 -51 -338
-275 -90 -131 -181 -233 -208 -233 -10 0 -31 -14 -46 -31 -69 -77 -270 -140
-570 -179 -232 -30 -324 -59 -440 -138 -160 -108 -374 -398 -556 -752 -95
-185 -102 -196 -155 -232 -26 -17 -72 -52 -102 -77 -30 -26 -68 -55 -84 -66
-16 -11 -35 -24 -43 -30 -36 -26 -46 100 -13 172 18 40 22 43 58 43 49 0 82
32 89 90 5 32 1 47 -15 70 -26 34 -20 58 17 65 89 19 166 95 261 258 87 152
131 265 171 439 47 209 51 214 197 255 61 17 119 44 192 87 145 88 148 89 300
131 256 70 602 205 922 359 201 97 233 108 263 94 35 -16 111 24 136 72 17 31
17 36 4 57 l-15 22 36 -21 37 -22 26 31 c34 40 113 91 293 192 228 127 465
237 516 240 7 1 36 -20 64 -46z m-7394 -9 l-4 -29 -12 28 c-13 31 -7 56 10 39
5 -5 8 -22 6 -38z m4306 36 c-14 -14 -103 -29 -110 -19 -5 8 12 14 66 22 48 8
54 7 44 -3z m-4813 -124 c33 -44 36 -56 14 -56 -8 0 -17 11 -21 25 -9 34 -24
31 -24 -5 0 -34 22 -50 69 -50 35 0 77 -38 61 -54 -7 -7 -17 -3 -30 12 -12 12
-31 22 -44 22 -13 0 -37 3 -54 6 -28 6 -29 4 -25 -20 3 -16 1 -26 -6 -26 -32
0 -65 176 -41 219 l12 23 30 -28 c17 -16 43 -47 59 -68z m1179 27 c0 -35 -14
-60 -24 -44 -9 15 3 71 15 71 5 0 9 -12 9 -27z m3114 12 c23 -17 13 -34 -11
-19 -19 12 -29 34 -16 34 4 0 17 -7 27 -15z m3966 -22 c6 -505 8 -556 24 -661
18 -117 17 -167 -2 -97 -34 124 -68 654 -48 758 9 48 26 47 26 0z m-8396 -105
c8 -92 25 -128 60 -128 40 0 61 -35 61 -100 0 -47 4 -63 23 -82 12 -14 22 -34
22 -46 0 -11 5 -24 10 -27 14 -9 70 52 70 76 0 11 9 27 19 36 21 17 18 43 -5
43 -23 0 -16 20 11 30 14 5 25 13 25 18 0 14 -23 32 -41 32 -32 0 -30 19 2 35
l32 17 53 -58 c30 -32 54 -62 54 -67 0 -5 -38 -47 -84 -93 -59 -60 -91 -84
-108 -84 -39 0 -292 159 -322 202 -27 39 -19 78 40 185 31 57 60 101 64 98 4
-3 11 -42 14 -87z m4635 73 c12 -8 12 -12 2 -25 -17 -21 -60 -21 -68 0 -10 27
35 44 66 25z m5369 -26 c49 -34 61 -45 45 -45 -12 1 -119 80 -108 80 6 0 34
-16 63 -35z m-4167 6 c61 -19 180 -43 281 -56 41 -5 88 -31 88 -49 0 -3 -11
-6 -25 -6 -14 0 -28 -7 -31 -15 -9 -21 -97 -19 -212 4 -150 31 -210 71 -188
126 7 19 11 19 87 -4z m909 -16 c0 -39 -28 -75 -60 -75 -29 0 -25 17 8 32 16
8 31 25 37 46 12 41 15 40 15 -3z m-4326 -47 c41 -74 59 -118 48 -118 -9 0
-92 152 -92 169 0 21 9 11 44 -51z m-405 -78 c51 -17 99 -29 107 -26 25 10 15
26 -28 47 -45 20 -44 20 50 3 27 -6 38 -2 60 18 34 32 72 52 80 43 11 -11
-158 -141 -546 -418 -261 -187 -295 -208 -242 -153 29 31 32 38 20 46 -8 5
-18 10 -22 10 -15 0 -18 41 -4 73 12 31 12 38 0 56 -27 38 4 22 67 -34 34 -30
65 -55 69 -55 5 0 23 12 40 26 25 22 30 32 25 52 -6 24 -4 25 29 19 20 -3 38
-2 41 2 8 13 -25 36 -112 80 -46 23 -83 43 -83 46 0 3 24 -5 53 -16 229 -93
285 -83 96 16 -46 25 -79 45 -73 45 6 0 57 -16 113 -35 189 -65 204 -39 27 48
-65 32 -116 60 -114 63 3 2 46 -11 97 -31 120 -45 211 -69 223 -57 11 11 -50
51 -179 117 -51 26 -90 51 -87 56 3 5 29 -5 58 -21 93 -53 276 -107 276 -82 0
12 -33 29 -151 76 -122 49 -163 72 -154 86 3 5 42 -9 88 -30 45 -21 125 -53
176 -70z m8051 35 c70 -35 104 -64 59 -50 -53 16 -162 85 -135 85 4 0 38 -16
76 -35z m-2825 -2 c-36 -26 -55 -34 -55 -23 0 12 62 52 70 44 3 -3 -4 -12 -15
-21z m-4041 -22 c31 -34 3 -24 -30 10 -21 23 -23 29 -9 21 11 -5 29 -20 39
-31z m-2704 8 c0 -18 5 -20 48 -17 l47 3 0 -35 c0 -34 -1 -35 -48 -42 -27 -4
-51 -9 -54 -12 -12 -12 11 -26 42 -26 35 0 98 -20 80 -25 -5 -2 -22 -6 -37 -9
-34 -8 -37 -26 -4 -26 13 0 31 -3 40 -6 20 -8 21 -34 1 -34 -22 0 -19 -12 19
-62 42 -55 151 -147 189 -160 28 -10 51 -40 40 -52 -3 -3 -16 -6 -27 -6 -37 0
-263 243 -346 372 l-37 56 16 51 c17 52 31 66 31 30z m5863 4 c-13 -2 -35 -2
-50 0 -16 2 -5 4 22 4 28 0 40 -2 28 -4z m-270 -69 c73 -8 229 -17 347 -20
267 -6 314 -11 342 -34 l23 -18 -20 -22 c-53 -59 -643 -311 -909 -389 -72 -22
-132 -38 -133 -37 -1 1 7 31 19 66 17 54 20 85 17 185 -5 209 -4 290 3 307 6
15 13 15 93 -3 47 -11 146 -26 218 -35z m2233 -169 l3 -150 -14 115 c-7 63
-14 142 -14 175 0 51 2 56 11 35 6 -14 12 -92 14 -175z m-1441 102 c0 -26 -20
-25 -23 2 -3 16 1 22 10 19 7 -3 13 -12 13 -21z m-4357 -54 c46 -129 81 -301
87 -433 5 -107 -2 -85 -30 105 -10 60 -32 170 -51 244 -36 144 -36 141 -30
141 2 0 13 -26 24 -57z m-2655 -29 c18 -9 75 -44 127 -78 102 -66 102 -79 1
-56 -42 9 -64 21 -87 47 -35 38 -54 37 -54 -2 0 -50 18 -72 93 -113 85 -47
119 -83 115 -121 -2 -19 -12 -29 -36 -37 -17 -5 -37 -15 -42 -20 -17 -17 -1
-42 32 -53 41 -15 351 -14 455 0 l81 12 59 -33 c100 -56 217 -134 206 -137 -5
-2 -146 19 -314 47 -264 44 -744 120 -756 120 -5 0 4 89 18 200 16 122 48 240
65 240 3 0 19 -7 37 -16z m764 -209 c83 -100 83 -100 62 -117 -32 -27 -94 -23
-168 12 -66 32 -251 138 -251 144 0 12 116 114 122 108 4 -4 11 -29 14 -54 6
-40 4 -47 -15 -57 -36 -20 -25 -38 27 -43 28 -3 67 -17 97 -36 57 -35 110 -49
120 -32 8 14 -45 72 -92 101 -18 12 -33 29 -33 39 0 10 -4 21 -10 25 -5 3 -7
12 -4 19 3 8 -3 16 -15 19 -12 3 -24 13 -28 24 -4 10 -13 23 -21 29 -9 7 -12
16 -7 24 10 16 68 -44 202 -205z m3041 168 c40 -14 75 -30 79 -36 7 -11 -16
-5 -119 35 -43 16 -78 32 -78 34 0 7 27 -1 118 -33z m3102 12 c0 -8 -82 -47
-87 -41 -3 2 12 14 34 25 39 20 53 25 53 16z m-5654 -91 c22 -28 25 -40 17
-52 -13 -22 -33 -25 -66 -13 -24 9 -27 16 -27 59 0 27 3 52 6 55 11 10 42 -11
70 -49z m1033 -15 c24 -11 42 -21 39 -24 -6 -7 -120 33 -133 46 -14 14 37 2
94 -22z m2651 2 c-20 -11 -90 -24 -90 -16 0 10 43 24 75 24 21 0 26 -2 15 -8z
m-135 -31 c-7 -11 -73 -25 -82 -17 -3 3 10 10 28 16 45 12 61 13 54 1z m44
-35 c-70 -24 -177 -45 -129 -25 33 14 161 49 180 49 8 0 -15 -11 -51 -24z
m1702 -1 c-18 -8 -36 -12 -39 -9 -10 10 21 25 48 24 23 -1 22 -2 -9 -15z
m-6694 -31 c-3 -10 -5 -4 -5 12 0 17 2 24 5 18 2 -7 2 -21 0 -30z m4822 32
c-9 -9 -731 -186 -742 -182 -18 6 131 50 348 103 289 69 408 94 394 79z
m-2106 -29 c82 -23 67 -29 -376 -146 -170 -45 -311 -79 -313 -77 -8 7 67 34
157 57 46 12 98 28 115 35 18 7 58 18 91 25 74 15 255 69 267 80 5 6 -1 18
-15 30 l-24 20 30 -6 c17 -4 47 -12 68 -18z m-2187 -11 c19 -14 18 -14 -3 -15
-19 0 -23 -5 -23 -35 0 -19 -4 -35 -9 -35 -13 0 -24 55 -16 80 8 24 24 26 51
5z m-101 -64 c-4 -34 -12 -61 -17 -61 -11 0 -5 100 7 120 13 22 17 0 10 -59z
m2545 39 c0 -6 -6 -10 -12 -10 -22 0 -41 17 -34 29 8 13 46 -3 46 -19z m1815
12 c-15 -12 -410 -105 -425 -100 -17 5 72 31 260 74 155 35 180 39 165 26z
m1209 -31 c-3 -9 -9 -35 -11 -58 -7 -51 -2 -49 -219 -102 -320 -80 -557 -120
-539 -91 3 5 46 30 96 56 49 25 115 66 147 91 65 51 104 63 302 97 218 38 237
38 224 7z m-5366 -16 c58 -30 82 -49 82 -64 0 -6 -7 -11 -15 -11 -22 0 -95 38
-122 63 -48 43 -17 50 55 12z m5829 4 c-25 -14 -127 -49 -127 -43 0 9 104 53
125 53 18 0 19 0 2 -10z m-3474 -36 c29 -16 30 -18 10 -21 -25 -4 -63 14 -63
28 0 15 17 12 53 -7z m-2996 -40 c-3 -10 -5 -2 -5 17 0 19 2 27 5 18 2 -10 2
-26 0 -35z m1372 -15 c0 -13 -4 -32 -9 -43 -7 -15 -9 -10 -9 23 -1 23 4 42 9
42 6 0 10 -10 9 -22z m111 17 c0 -15 -32 -65 -41 -65 -11 0 -3 37 13 58 11 12
28 17 28 7z m177 -18 c-5 -16 -145 -112 -153 -104 -9 9 32 72 65 100 21 18 37
23 60 19 18 -2 30 -9 28 -15z m-441 -52 c7 -28 6 -29 -10 -16 -22 19 -47 67
-39 75 11 10 41 -26 49 -59z m3024 45 c-15 -10 -60 -14 -60 -5 0 6 64 23 70
18 2 -2 -2 -8 -10 -13z m-3171 -4 c38 -20 101 -92 101 -116 0 -20 0 -20 -41 0
-22 12 -65 37 -95 56 -54 34 -55 36 -38 55 20 23 36 24 73 5z m5047 -11 c-11
-8 -29 -15 -40 -14 -17 0 -15 3 9 14 39 18 55 18 31 0z m1329 -10 c38 -15 59
-40 51 -60 -8 -22 -18 -19 -75 26 -75 60 -67 71 24 34z m-2466 -21 c-18 -20
-56 -54 -84 -76 -27 -23 -50 -46 -50 -52 0 -7 -23 -10 -67 -8 -59 2 -68 0 -78
-18 -7 -14 -21 -20 -45 -20 -40 0 -46 14 -37 80 l7 45 155 42 c85 22 173 42
194 42 l40 1 -35 -36z m-3145 1 c27 -8 77 -15 110 -16 l61 -1 -35 -15 c-56
-25 -300 -84 -355 -86 -27 -1 -52 3 -54 8 -5 10 94 85 111 85 4 0 8 -13 8 -30
0 -19 5 -30 14 -30 17 0 26 21 26 59 0 15 3 31 7 34 11 11 55 8 107 -8z m4126
-14 c0 -11 -59 -26 -67 -18 -3 3 10 10 28 16 19 5 35 10 37 10 1 1 2 -3 2 -8z
m2743 -58 c14 -45 14 -63 1 -51 -11 12 -33 98 -24 98 5 0 16 -21 23 -47z
m-8720 -85 l-10 -93 -2 105 c-1 76 2 101 10 93 8 -8 8 -38 2 -105z m122 93
c22 -5 66 -15 98 -21 l57 -11 0 -48 c0 -70 -10 -75 -126 -63 -62 6 -99 14
-105 23 -10 16 -12 123 -2 132 4 4 14 5 22 3 9 -3 34 -9 56 -15z m2013 -33
c-6 -18 -62 -29 -131 -26 l-62 3 45 17 c54 20 154 24 148 6z m793 -20 c5 -119
-22 -453 -41 -513 -8 -26 -9 -23 -5 20 2 28 9 154 14 280 5 127 10 233 10 238
1 4 6 7 11 7 6 0 11 -15 11 -32z m1563 -4 c3 -9 6 -26 6 -39 0 -23 -1 -23
-182 -30 -284 -11 -292 -7 -88 42 193 46 254 52 264 27z m-3805 -29 c149 -26
217 -43 207 -52 -9 -10 -397 -22 -479 -16 -62 5 -80 10 -88 24 -12 24 4 56 34
70 30 13 152 3 326 -26z m783 18 c10 -9 18 -22 18 -29 0 -19 -68 -46 -104 -42
-27 3 -31 -1 -45 -44 -31 -90 -79 -112 -125 -57 -43 51 -26 139 27 139 l22 0
-22 -18 c-51 -40 -31 -131 28 -132 9 0 20 8 23 18 3 9 13 28 21 42 12 22 12
28 0 47 -20 29 -19 47 1 39 27 -10 96 13 101 35 6 23 30 25 55 2z m1332 -3
c15 -15 -14 -12 -49 6 l-30 14 35 -5 c19 -3 39 -10 44 -15z m6056 -32 c22 -37
25 -48 10 -48 -8 0 -40 61 -40 76 0 12 13 0 30 -28z m-5675 13 c3 -5 -4 -13
-16 -16 -27 -9 -139 4 -139 16 0 12 147 12 155 0z m-2093 -67 c49 -10 43 -64
-7 -64 -36 0 -52 9 -81 47 l-27 35 44 -6 c24 -4 56 -9 71 -12z m9495 -25 c19
-12 32 -23 29 -26 -5 -5 -86 35 -86 42 0 11 25 4 57 -16z m-8355 -14 c3 -3 -9
-21 -26 -40 l-31 -34 -140 25 c-77 13 -159 27 -183 31 -23 3 -45 10 -48 14 -5
9 419 13 428 4z m431 -6 c20 -5 37 -12 37 -16 0 -3 -11 -18 -25 -35 -27 -32
-33 -68 -12 -68 7 0 43 20 80 45 l67 45 6 -26 c9 -34 -2 -94 -20 -113 -14 -13
-19 -13 -48 2 -19 10 -132 32 -262 52 -127 19 -234 39 -239 44 -16 16 109 59
218 74 61 8 161 7 198 -4z m1440 -189 c9 -25 33 -95 56 -156 49 -136 74 -255
66 -306 -8 -48 -47 -80 -89 -76 -42 4 -47 43 -11 82 14 16 25 29 23 31 -7 7
-144 -46 -154 -60 -6 -8 -20 -15 -30 -15 -25 0 -64 27 -64 45 0 7 15 60 34
117 19 57 39 139 46 183 6 44 15 108 19 142 5 34 24 95 43 135 l33 73 7 -75
c3 -41 13 -95 21 -120z m-3946 149 c35 -6 73 -19 86 -29 l22 -18 -21 -29 c-33
-44 -103 -93 -133 -93 -35 0 -48 27 -57 115 -8 75 -11 74 103 54z m2840 -91
c-4 -57 -20 -211 -36 -343 -17 -132 -42 -339 -56 -460 -15 -121 -32 -231 -39
-245 -9 -20 -18 -24 -43 -23 -36 3 -193 51 -193 59 0 3 25 47 57 97 140 228
236 529 278 875 8 68 17 127 20 133 15 23 18 2 12 -93z m1933 93 c0 -19 -116
-54 -195 -59 -64 -3 -83 -1 -93 11 -19 23 -4 28 126 42 151 16 162 17 162 6z
m-1795 -34 c34 -81 336 -1136 329 -1148 -2 -3 -80 -9 -173 -13 -168 -7 -327
-1 -352 14 -10 7 -9 36 4 147 9 76 37 309 62 518 57 488 53 459 76 489 27 34
37 33 54 -7z m7632 -13 c-7 -7 -64 22 -72 37 -4 6 12 1 35 -11 23 -12 40 -24
37 -26z m-7457 -21 c30 -32 111 -132 180 -222 200 -263 240 -311 266 -317 29
-7 30 -26 10 -159 -20 -135 -8 -153 120 -162 94 -7 108 -21 62 -63 -57 -53
-279 -154 -383 -175 l-30 -6 -59 198 c-32 109 -94 317 -138 463 -95 319 -132
464 -124 485 10 28 40 15 96 -42z m-1596 31 c18 -18 21 -54 5 -54 -9 0 -53 26
-79 47 -7 6 23 23 42 23 9 0 24 -7 32 -16z m2535 2 c25 -14 29 -22 34 -83 10
-99 8 -446 -2 -461 -5 -9 -12 8 -20 49 -7 34 -33 128 -57 208 -49 162 -61 233
-45 274 12 31 45 36 90 13z m-3449 -1 c0 -10 -52 -26 -295 -90 -301 -79 -295
-78 -295 -64 0 6 14 27 31 46 17 20 38 50 46 69 9 18 26 35 37 37 31 6 476 8
476 2z m280 -36 c-47 -39 -523 -375 -683 -483 -71 -47 -135 -86 -143 -86 -8 0
-14 -7 -14 -15 0 -28 -17 -15 -42 33 -30 55 -73 186 -83 254 -7 46 -7 48 26
62 19 9 207 63 419 121 212 57 421 115 465 128 44 13 82 22 85 20 3 -3 -11
-18 -30 -34z m2495 15 c33 -8 94 -34 135 -58 l75 -43 3 -134 c1 -74 -1 -168
-5 -209 l-8 -75 -160 210 c-154 201 -223 295 -239 323 -9 16 109 7 199 -14z
m864 -3 c26 -24 31 -36 31 -76 0 -54 -52 -218 -80 -255 -34 -43 -42 -12 -37
155 6 206 21 237 86 176z m-2520 10 c11 -7 10 -11 -7 -20 -40 -21 -82 -10 -61
16 13 15 47 17 68 4z m1881 -16 c0 -16 -17 -19 -44 -9 -26 10 -18 24 14 24 20
0 30 -5 30 -15z m168 -13 c5 -32 -17 -102 -34 -109 -8 -3 -24 3 -34 12 -34 31
-21 97 23 115 30 12 41 7 45 -18z m-121 -29 c-3 -10 -5 -4 -5 12 0 17 2 24 5
18 2 -7 2 -21 0 -30z m-1547 -4 c80 -11 156 -22 169 -25 l25 -5 -30 -25 c-16
-13 -63 -50 -104 -81 -84 -63 -140 -113 -140 -125 0 -4 11 -8 24 -8 30 0 146
78 240 160 45 38 78 60 94 60 28 0 205 -22 211 -26 2 -2 -15 -24 -37 -51 -71
-85 -212 -313 -212 -343 0 -5 9 -10 20 -10 23 0 65 53 156 201 38 61 70 104
72 95 8 -38 -95 -376 -114 -376 -20 0 -475 275 -694 419 -63 41 -127 81 -142
88 -16 6 -28 17 -28 24 0 9 3 9 14 0 11 -9 35 -5 107 18 139 44 121 43 369 10z
m-603 -51 c58 -37 62 -41 61 -77 0 -21 7 -52 16 -70 19 -35 84 -111 96 -111 4
0 1 28 -6 63 -24 114 -25 113 64 61 120 -71 192 -118 189 -125 -1 -4 -31 -28
-67 -55 -36 -27 -66 -56 -68 -65 -4 -21 76 -139 94 -139 19 0 18 14 -6 60 -11
22 -20 45 -20 52 0 16 101 118 117 118 12 0 260 -148 307 -183 18 -13 15 -20
-58 -134 -41 -66 -82 -125 -89 -132 -11 -9 -28 2 -81 50 -37 34 -69 59 -72 57
-2 -3 14 -29 36 -57 43 -54 92 -91 122 -91 34 0 95 70 149 170 30 55 57 100
60 100 3 0 27 -14 52 -31 38 -25 47 -37 47 -59 0 -30 -44 -119 -111 -226 l-41
-64 -31 24 c-66 49 -117 65 -117 36 0 -4 20 -33 45 -63 25 -31 45 -59 45 -63
0 -16 -115 104 -245 256 -226 265 -615 743 -615 757 0 16 30 2 127 -59z m-567
4 c0 -28 -398 -608 -593 -866 l-60 -79 -18 24 c-88 113 -195 298 -186 322 3 7
58 51 124 97 65 46 235 169 378 274 143 106 274 201 290 213 30 23 65 30 65
15z m537 -167 c68 -77 154 -182 191 -234 163 -228 225 -304 364 -447 99 -102
148 -160 148 -174 0 -13 -19 -40 -47 -67 -59 -54 -194 -158 -233 -178 -54 -28
-63 -12 -296 545 -255 607 -292 703 -267 698 9 -2 72 -66 140 -143z m-517
-120 c-34 -110 -104 -344 -156 -520 -52 -176 -105 -340 -117 -365 -29 -60 -53
-62 -125 -13 l-57 38 85 5 c47 3 80 8 74 12 -6 4 -58 15 -115 23 -97 15 -131
26 -117 41 4 3 56 0 115 -6 60 -7 118 -10 129 -8 37 9 -32 27 -149 39 -61 6
-122 13 -135 15 -52 10 -40 50 58 199 73 110 523 749 549 779 34 39 21 -39
-39 -239z m189 59 c12 -159 46 -758 57 -1011 8 -179 14 -171 -109 -153 -188
26 -353 87 -323 118 4 4 91 9 193 12 162 4 187 7 197 22 7 12 7 21 0 28 -6 6
-90 19 -187 29 -97 11 -180 22 -185 25 -13 8 -7 32 68 296 102 357 231 773
253 815 10 19 11 19 17 -6 4 -14 13 -93 19 -175z m2587 131 c12 -19 15 -36 9
-71 -8 -56 -29 -139 -46 -179 l-12 -30 -8 40 c-12 59 -11 223 1 246 15 26 36
24 56 -6z m-2473 -3 c9 -10 32 -53 52 -97 49 -107 465 -1105 465 -1115 0 -10
-143 -55 -235 -75 -88 -19 -254 -20 -260 -2 -4 12 -16 215 -51 899 -15 295
-14 408 5 408 4 0 15 -8 24 -18z m9379 -95 c26 -34 44 -64 41 -67 -6 -6 -70
66 -89 103 -25 46 -1 29 48 -36z m-10718 -166 c54 -158 60 -201 10 -81 -39 96
-74 204 -74 229 1 28 16 -6 64 -148z m2742 48 c-8 -19 -15 -26 -15 -17 -1 23
20 75 26 62 2 -7 -3 -27 -11 -45z m8203 -70 c7 -21 -39 12 -58 42 l-16 24 35
-26 c18 -14 36 -32 39 -40z m-8243 -65 c-9 -35 -68 -165 -73 -161 -4 4 43 139
59 170 13 25 21 21 14 -9z m1460 -149 c-4 -14 -13 -25 -20 -25 -16 0 -11 35 8
59 14 17 20 -1 12 -34z m-111 6 c15 -6 5 -10 -37 -15 -64 -8 -168 1 -168 15 0
11 177 11 205 0z m-263 -53 c28 -19 73 -76 67 -83 -8 -7 -138 22 -153 35 -21
16 -20 44 0 65 18 18 44 13 86 -17z m-3648 -45 c13 -27 55 -95 93 -153 92
-141 91 -139 68 -120 -22 18 -148 206 -181 273 -13 26 -20 47 -14 47 5 0 21
-21 34 -47z m3859 30 c-7 -2 -21 -2 -30 0 -10 3 -4 5 12 5 17 0 24 -2 18 -5z
m151 -15 c-12 -19 -73 -38 -121 -37 l-48 1 45 13 c25 7 61 19 80 27 36 16 55
14 44 -4z m-1631 -169 c-10 -17 -27 -38 -37 -47 -15 -13 -13 -5 9 35 15 29 32
50 37 47 4 -3 0 -19 -9 -35z m-63 -98 c0 -12 -41 -63 -47 -57 -5 5 35 66 43
66 2 0 4 -4 4 -9z m2183 -45 c3 -8 2 -30 -4 -48 -5 -18 -9 -76 -9 -129 0 -61
-5 -101 -12 -112 -16 -20 -124 -61 -138 -52 -28 18 6 186 56 272 38 66 94 102
107 69z m-1967 -46 c43 -11 83 -25 89 -31 7 -9 3 -10 -15 -6 -14 4 -58 14 -97
24 -40 9 -73 20 -73 25 0 11 7 10 96 -12z m-316 -40 c-32 -40 -48 -55 -55 -48
-6 6 66 88 77 88 5 0 -5 -18 -22 -40z m-1865 -55 c54 -42 131 -96 172 -121 40
-26 72 -49 69 -51 -14 -15 -196 106 -316 210 -75 64 -27 40 75 -38z m2408 65
c9 0 17 -4 17 -10 0 -11 -33 -13 -79 -4 -45 9 -39 28 7 20 20 -3 45 -6 55 -6z
m4497 -55 c33 -35 113 -85 136 -85 17 0 21 -10 30 -65 11 -77 9 -85 -21 -85
-52 0 -152 62 -190 118 -26 39 -32 89 -15 123 14 26 32 24 60 -6z m-6452 -92
c-10 -2 -28 -2 -40 0 -13 2 -5 4 17 4 22 1 32 -1 23 -4z m210 -20 c-15 -2 -42
-2 -60 0 -18 2 -6 4 27 4 33 0 48 -2 33 -4z m-228 -155 c0 -10 -46 8 -87 33
-56 35 -36 38 27 5 33 -17 60 -34 60 -38z"/>
<path d="M1138 7308 c-47 -16 -32 -29 25 -22 59 8 61 9 52 23 -8 13 -40 13
-77 -1z"/>
<path d="M1164 7260 c-36 -14 -38 -30 -5 -30 33 0 81 19 81 32 0 10 -48 9 -76
-2z"/>
<path d="M1183 7208 c-30 -14 -29 -28 1 -28 33 0 76 17 76 30 0 13 -49 12 -77
-2z"/>
<path d="M3496 6435 c-10 -26 -7 -163 3 -170 13 -7 25 54 25 124 1 53 -15 79
-28 46z"/>
<path d="M3592 6418 c-7 -7 -12 -40 -11 -77 1 -74 2 -72 23 16 14 62 10 83
-12 61z"/>
<path d="M3665 6398 c-21 -51 -28 -105 -16 -113 14 -8 36 42 46 103 8 52 -10
58 -30 10z"/>
<path d="M3751 6407 c-15 -19 -25 -73 -17 -94 7 -17 8 -17 17 -1 13 24 28 108
19 108 -4 0 -13 -6 -19 -13z"/>
<path d="M3906 6388 c-19 -27 -22 -112 -4 -106 7 3 16 24 20 47 4 24 10 52 13
62 9 26 -10 24 -29 -3z"/>
<path d="M3820 6385 c-16 -20 -25 -91 -12 -99 13 -8 27 17 36 66 7 40 -5 56
-24 33z"/>
<path d="M3976 6350 c-18 -46 -20 -76 -6 -85 12 -7 27 30 36 86 9 52 -9 51
-30 -1z"/>
<path d="M4044 6355 c-17 -40 -18 -75 -3 -75 12 0 39 61 39 90 0 31 -20 24
-36 -15z"/>
<path d="M4170 6328 c-22 -37 -27 -92 -8 -86 11 4 48 89 48 111 0 18 -22 4
-40 -25z"/>
<path d="M4112 6323 c-19 -47 -25 -83 -14 -83 11 0 42 71 42 95 0 24 -17 17
-28 -12z"/>
<path d="M4336 6287 c-32 -53 -58 -127 -46 -127 12 0 90 134 90 154 0 28 -19
17 -44 -27z"/>
<path d="M4416 6294 c-25 -24 -85 -153 -92 -196 -5 -32 -5 -32 11 -13 28 33
106 196 103 213 -3 13 -6 13 -22 -4z"/>
<path d="M4478 6253 c-17 -20 -62 -106 -72 -140 -22 -72 61 44 93 130 12 31 2
36 -21 10z"/>
<path d="M4528 6207 c-26 -42 -58 -112 -58 -128 0 -24 20 -2 57 64 49 88 56
107 40 107 -7 0 -24 -19 -39 -43z"/>
<path d="M4607 6202 c-38 -41 -84 -173 -48 -136 14 13 81 134 81 145 0 15 -16
10 -33 -9z"/>
<path d="M4672 6161 c-33 -45 -48 -79 -39 -88 11 -10 28 9 53 58 33 67 25 85
-14 30z"/>
<path d="M4754 6163 c-34 -46 -43 -68 -34 -83 6 -9 16 2 35 39 30 60 30 86 -1
44z"/>
<path d="M4807 6130 c-34 -40 -48 -80 -29 -80 21 0 77 91 70 112 -2 6 -21 -9
-41 -32z"/>
<path d="M4861 6108 c-30 -41 -39 -68 -23 -68 11 0 72 85 72 99 0 22 -19 10
-49 -31z"/>
<path d="M4933 6117 c-31 -33 -63 -90 -63 -111 0 -18 1 -18 24 3 31 29 79 118
68 125 -5 3 -18 -5 -29 -17z"/>
<path d="M4984 6078 c-18 -18 -37 -44 -44 -56 -21 -41 18 -23 52 25 39 53 33
74 -8 31z"/>
<path d="M5033 6046 c-35 -30 -69 -86 -52 -86 17 0 89 77 89 95 0 20 -4 19
-37 -9z"/>
<path d="M3821 5855 c-6 -42 -11 -97 -10 -123 l1 -47 9 35 c10 44 24 210 17
210 -3 0 -11 -34 -17 -75z"/>
<path d="M3881 5868 c-14 -69 -41 -244 -41 -260 2 -57 40 120 56 255 8 71 -1
74 -15 5z"/>
<path d="M4257 5878 c-3 -7 -77 -193 -165 -413 -161 -401 -191 -484 -153 -414
19 35 321 770 335 817 8 23 -8 32 -17 10z"/>
<path d="M3946 5862 c-9 -15 -34 -138 -50 -247 -9 -60 -19 -123 -21 -140 -3
-20 -2 -25 4 -15 7 12 51 236 76 383 4 27 1 35 -9 19z"/>
<path d="M4483 5844 c-74 -106 -581 -1059 -570 -1071 6 -6 28 33 240 427 102
190 224 415 271 500 48 85 85 159 83 164 -2 5 -12 -4 -24 -20z"/>
<path d="M4252 5642 c-171 -351 -366 -795 -359 -815 2 -6 32 54 67 134 35 79
119 266 188 414 179 388 213 467 209 471 -2 2 -49 -89 -105 -204z"/>
<path d="M4616 5663 c-151 -233 -461 -736 -501 -814 -9 -16 -13 -29 -10 -29 6
0 84 120 168 257 26 43 84 137 129 208 119 190 250 403 281 458 53 90 16 46
-67 -80z"/>
<path d="M4529 5717 c-161 -232 -597 -987 -587 -1017 2 -6 52 79 112 187 114
206 275 476 428 721 49 79 88 147 86 152 -2 5 -19 -14 -39 -43z"/>
<path d="M4070 5593 c-94 -248 -181 -495 -177 -507 4 -12 40 79 132 334 35 96
74 205 89 243 14 37 21 67 17 67 -5 0 -32 -62 -61 -137z"/>
<path d="M2955 6420 c-7 -34 2 -90 15 -90 5 0 11 14 15 30 7 34 -2 90 -15 90
-5 0 -11 -13 -15 -30z"/>
<path d="M3115 6438 c-9 -24 -1 -103 10 -103 14 0 19 95 6 108 -7 7 -12 5 -16
-5z"/>
<path d="M3262 6425 c-14 -30 -16 -111 -3 -119 11 -7 31 62 31 108 0 42 -12
47 -28 11z"/>
<path d="M3331 6413 c-13 -46 -14 -123 -2 -123 13 0 22 28 28 97 7 72 -9 87
-26 26z"/>
<path d="M3025 6406 c-7 -36 1 -76 14 -76 12 0 22 58 15 86 -9 34 -22 30 -29
-10z"/>
<path d="M3193 6423 c-16 -26 -17 -93 -3 -93 16 0 22 23 18 71 -3 41 -4 42
-15 22z"/>
<path d="M2687 6413 c-19 -18 3 -133 25 -133 7 0 9 22 5 61 -5 60 -16 86 -30
72z"/>
<path d="M2752 6355 c3 -61 21 -79 26 -26 4 42 -5 81 -19 81 -6 0 -9 -22 -7
-55z"/>
<path d="M2816 6380 c-6 -33 8 -80 24 -80 5 0 10 18 10 39 0 70 -22 97 -34 41z"/>
<path d="M2886 6394 c-7 -19 3 -64 14 -64 13 0 22 38 15 60 -8 24 -21 26 -29
4z"/>
<path d="M2500 6328 c1 -18 7 -46 14 -63 l13 -30 8 28 c10 38 -2 97 -20 97
-10 0 -15 -11 -15 -32z"/>
<path d="M2420 6310 c0 -27 20 -68 36 -74 19 -7 18 27 -1 64 -18 34 -35 39
-35 10z"/>
<path d="M2357 6303 c-15 -15 -7 -63 13 -73 17 -9 20 -8 20 12 0 51 -16 79
-33 61z"/>
<path d="M2280 6241 c0 -37 10 -62 21 -55 10 6 12 45 3 68 -10 26 -24 18 -24
-13z"/>
<path d="M2196 6251 c-8 -12 24 -101 35 -101 13 0 11 54 -3 85 -12 26 -23 32
-32 16z"/>
<path d="M2136 6212 c-6 -11 12 -71 25 -86 5 -6 9 7 9 31 0 39 -22 74 -34 55z"/>
<path d="M2068 6184 c-7 -6 5 -54 20 -81 10 -16 11 -15 17 8 10 41 -17 94 -37
73z"/>
<path d="M1995 6133 c17 -69 55 -109 55 -58 0 35 -27 85 -46 85 -13 0 -15 -6
-9 -27z"/>
<path d="M1940 6082 c0 -10 8 -28 17 -41 15 -23 17 -23 23 -6 11 31 0 65 -21
65 -12 0 -19 -7 -19 -18z"/>
<path d="M2896 5868 c18 -78 54 -188 61 -188 9 0 -5 71 -33 163 -31 100 -49
117 -28 25z"/>
<path d="M1867 5846 c-3 -7 1 -24 10 -36 20 -29 37 -12 24 23 -11 29 -26 35
-34 13z"/>
<path d="M2831 5821 c11 -52 59 -184 70 -195 21 -23 -1 68 -43 182 -23 61 -40
69 -27 13z"/>
<path d="M1850 5777 c0 -25 51 -87 72 -87 17 0 6 31 -23 65 -32 36 -49 44 -49
22z"/>
<path d="M2630 5733 c1 -9 75 -167 109 -231 37 -73 35 -39 -4 50 -51 116 -106
212 -105 181z"/>
<path d="M2614 5605 c63 -120 126 -217 126 -195 0 23 -163 300 -176 300 -3 0
19 -47 50 -105z"/>
<path d="M1850 5677 c0 -13 60 -77 73 -77 17 0 5 34 -22 61 -31 31 -51 37 -51
16z"/>
<path d="M1830 5623 c0 -17 40 -72 59 -82 31 -17 34 4 5 38 -27 32 -64 58 -64
44z"/>
<path d="M1820 5536 c0 -15 84 -96 100 -96 20 0 9 18 -40 64 -53 50 -60 53
-60 32z"/>
<path d="M2310 5509 c29 -53 265 -379 275 -379 10 0 -82 136 -198 293 -75 102
-100 131 -77 86z"/>
<path d="M1820 5447 c0 -16 72 -87 88 -87 22 0 12 17 -33 59 -48 44 -55 48
-55 28z"/>
<path d="M1816 5372 c-7 -12 54 -86 86 -103 32 -17 20 7 -30 62 -31 33 -51 48
-56 41z"/>
<path d="M1816 5271 c-8 -13 40 -69 75 -87 34 -17 36 -12 9 27 -26 36 -77 72
-84 60z"/>
<path d="M2226 5233 c44 -60 209 -256 238 -282 14 -14 26 -19 26 -13 0 6 -48
67 -108 134 -59 68 -120 140 -136 161 -16 20 -33 37 -38 37 -6 0 2 -17 18 -37z"/>
<path d="M1820 5188 c0 -14 116 -128 131 -128 21 0 5 26 -51 81 -60 59 -80 70
-80 47z"/>
<path d="M1830 5076 c0 -38 5 -48 43 -83 53 -49 137 -107 137 -95 0 5 -25 33
-55 63 -57 55 -65 73 -21 43 15 -9 29 -14 33 -10 8 8 -110 126 -125 126 -7 0
-12 -17 -12 -44z"/>
<path d="M2230 5103 c0 -13 204 -209 234 -225 30 -16 -30 51 -118 132 -101 93
-116 104 -116 93z"/>
<path d="M2271 4970 c41 -50 170 -162 178 -154 7 7 -162 170 -192 186 -13 7
-8 -4 14 -32z"/>
<path d="M1846 4838 c8 -53 25 -73 86 -104 58 -29 71 -30 63 -4 -6 20 9 28 20
10 3 -5 11 -10 17 -10 25 0 -63 73 -155 129 l-38 23 7 -44z"/>
<path d="M2301 4854 c36 -39 121 -106 127 -99 8 7 -35 51 -89 91 -56 41 -72
44 -38 8z"/>
<path d="M2320 4756 c0 -15 67 -62 76 -53 6 6 -32 44 -58 58 -14 7 -18 6 -18
-5z"/>
<path d="M1852 4728 c5 -15 145 -88 168 -88 22 0 -35 44 -97 74 -57 29 -77 32
-71 14z"/>
<path d="M2300 4691 c0 -12 54 -51 69 -51 19 0 12 18 -15 39 -28 22 -54 28
-54 12z"/>
<path d="M1852 4668 c8 -22 94 -69 139 -75 61 -9 43 12 -47 53 -78 37 -98 41
-92 22z"/>
<path d="M1864 4599 c-10 -17 13 -34 80 -58 92 -32 114 -24 40 16 -83 44 -112
54 -120 42z"/>
<path d="M2230 4530 c0 -13 34 -30 62 -30 l23 1 -24 19 c-24 21 -61 27 -61 10z"/>
<path d="M1877 4511 c27 -22 191 -84 207 -77 16 6 -177 96 -205 96 l-24 -1 22
-18z"/>
<path d="M2214 4489 c-8 -14 14 -29 44 -29 26 0 27 3 6 24 -18 19 -40 21 -50
5z"/>
<path d="M1902 4446 c49 -44 182 -82 177 -51 -1 9 -124 57 -179 70 l-25 5 27
-24z"/>
<path d="M2202 4418 c3 -7 13 -15 22 -16 12 -3 17 1 14 10 -3 7 -13 15 -22 16
-12 3 -17 -1 -14 -10z"/>
<path d="M1908 4387 c18 -21 119 -59 146 -54 16 3 8 10 -35 30 -30 15 -71 30
-90 34 -31 6 -33 5 -21 -10z"/>
<path d="M1662 6059 c1 -13 8 -23 13 -21 15 3 12 35 -3 40 -9 3 -13 -3 -10
-19z"/>
<path d="M1646 6011 c-8 -12 3 -41 15 -41 12 0 12 37 0 45 -5 3 -12 1 -15 -4z"/>
<path d="M1206 5864 c-22 -21 -20 -40 5 -57 44 -31 97 15 59 53 -24 24 -43 25
-64 4z"/>
<path d="M3326 5625 c3 -49 10 -94 16 -100 12 -12 3 115 -12 161 -7 21 -8 3
-4 -61z"/>
<path d="M1478 5290 c-40 -21 -57 -40 -36 -40 19 1 95 36 102 49 11 17 -25 12
-66 -9z"/>
<path d="M12112 4984 c2 -15 9 -29 16 -32 10 -3 13 4 10 24 -2 15 -9 29 -16
32 -10 3 -13 -4 -10 -24z"/>
<path d="M11370 4841 c0 -32 16 -49 31 -34 11 11 -8 63 -23 63 -4 0 -8 -13 -8
-29z"/>
<path d="M11310 4815 c0 -21 17 -45 32 -45 14 0 9 17 -12 41 -19 23 -19 23
-20 4z"/>
<path d="M11174 4719 c-3 -6 3 -21 15 -32 16 -16 23 -19 33 -9 9 9 7 16 -7 32
-20 23 -31 25 -41 9z"/>
<path d="M11107 4639 c-4 -16 -11 -19 -26 -14 -17 5 -21 2 -21 -14 0 -23 33
-30 45 -10 4 5 18 15 32 20 21 8 23 12 13 24 -18 21 -37 19 -43 -6z"/>
<path d="M11874 4626 c3 -13 9 -70 12 -126 6 -80 9 -98 17 -79 9 24 3 164 -9
207 -8 30 -28 28 -20 -2z"/>
<path d="M11790 4586 c0 -16 5 -56 10 -90 6 -33 14 -90 19 -126 l8 -65 2 70
c1 79 -14 199 -29 224 -8 13 -9 10 -10 -13z"/>
<path d="M11690 4568 c0 -9 11 -62 24 -117 13 -55 28 -125 31 -155 4 -31 12
-56 17 -56 15 0 2 103 -27 216 -24 96 -44 146 -45 112z"/>
<path d="M10998 4539 c-50 -37 -366 -425 -355 -436 3 -3 27 9 53 26 26 17 53
31 59 31 7 0 20 9 29 19 17 18 16 20 -4 26 -32 10 -18 30 23 33 36 3 47 14 27
27 -18 11 -10 25 15 25 22 0 25 4 23 33 -3 29 0 32 30 35 32 3 41 15 22 27 -5
3 -10 13 -10 21 0 12 9 15 38 12 36 -3 37 -2 34 29 -5 44 13 73 44 73 18 0 25
5 22 17 -5 24 -20 25 -50 2z"/>
<path d="M11581 4488 c31 -79 89 -255 89 -272 0 -8 5 -18 11 -22 9 -5 10 4 5
32 -11 57 -76 255 -94 287 -27 45 -33 30 -11 -25z"/>
<path d="M11465 4468 c13 -43 135 -283 129 -253 -6 35 -119 275 -129 275 -3 0
-3 -10 0 -22z"/>
<path d="M11455 4243 c54 -100 75 -112 25 -15 -23 45 -47 82 -52 82 -5 0 7
-30 27 -67z"/>
<path d="M12010 4107 c-1 -22 118 -232 127 -223 7 7 -75 168 -102 202 -14 16
-24 25 -25 21z"/>
<path d="M12104 4074 c17 -51 65 -143 66 -127 0 22 -41 122 -60 145 l-20 23
14 -41z"/>
<path d="M11960 4094 c0 -14 78 -172 89 -178 17 -11 14 -2 -34 94 -40 80 -55
103 -55 84z"/>
<path d="M4047 4169 c-17 -10 -18 -12 -1 -30 9 -10 41 -28 70 -39 66 -24 285
-80 316 -80 48 0 -8 30 -111 60 -57 16 -106 32 -109 35 -3 3 16 5 42 5 56 0
58 16 5 42 -39 20 -181 25 -212 7z"/>
<path d="M4220 4039 c0 -14 66 -44 185 -83 119 -39 130 -41 119 -25 -15 25
-304 128 -304 108z"/>
<path d="M4290 3941 c0 -20 286 -147 311 -139 6 2 -42 29 -107 60 -133 64
-204 91 -204 79z"/>
<path d="M5101 3861 c44 -34 221 -143 225 -138 10 10 -102 97 -161 126 -70 35
-100 40 -64 12z"/>
<path d="M4335 3841 c39 -38 274 -156 296 -149 12 4 -143 91 -246 137 -55 25
-66 28 -50 12z"/>
<path d="M5114 3791 c11 -17 196 -154 202 -149 6 7 -77 81 -141 124 -49 34
-72 43 -61 25z"/>
<path d="M4110 3749 c0 -39 91 -109 143 -109 l30 0 -39 26 c-21 15 -56 42 -77
60 -38 35 -57 42 -57 23z"/>
<path d="M4370 3742 c0 -22 124 -97 208 -126 54 -19 54 -6 0 24 -24 13 -75 43
-115 67 -71 43 -93 51 -93 35z"/>
<path d="M5145 3661 c44 -49 205 -184 205 -173 0 10 -166 159 -210 188 -22 15
-22 14 5 -15z"/>
<path d="M4390 3651 c0 -30 198 -166 216 -148 3 3 -32 30 -78 60 -46 30 -92
65 -102 76 -20 22 -36 27 -36 12z"/>
<path d="M4136 3633 c-12 -12 -6 -51 10 -57 24 -9 64 -7 64 3 0 21 -62 66 -74
54z"/>
<path d="M5169 3541 c21 -29 122 -120 151 -136 8 -4 -23 31 -70 79 -85 87
-119 110 -81 57z"/>
<path d="M4367 3534 c32 -44 122 -129 129 -121 3 3 -10 25 -30 48 -20 24 -36
52 -36 63 0 15 -7 21 -22 22 -13 0 -32 5 -42 9 -19 8 -19 7 1 -21z"/>
<path d="M5190 3240 c15 -27 47 -44 56 -28 8 13 -30 48 -52 48 -12 0 -12 -4
-4 -20z"/>
<path d="M5120 3211 c0 -24 116 -141 139 -141 22 0 10 21 -46 75 -59 59 -93
83 -93 66z"/>
<path d="M5068 3142 c29 -40 143 -145 150 -137 7 6 -124 141 -152 157 -17 9
-17 8 2 -20z"/>
<path d="M5000 3121 c0 -11 169 -171 182 -171 14 0 -47 72 -99 115 -66 56 -83
68 -83 56z"/>
<path d="M4921 3084 c23 -28 232 -184 238 -178 9 10 -128 133 -184 165 -56 32
-74 37 -54 13z"/>
<path d="M4792 3079 c2 -7 44 -37 94 -68 49 -31 120 -80 158 -109 69 -52 86
-60 86 -43 0 21 -303 231 -333 231 -5 0 -7 -5 -5 -11z"/>
<path d="M4580 3071 c0 -5 21 -17 48 -27 174 -63 264 -105 362 -167 30 -20 58
-33 62 -31 18 11 -10 35 -95 82 -191 106 -377 176 -377 143z"/>
<path d="M4450 3027 c17 -18 113 -57 330 -134 85 -30 174 -66 197 -79 48 -28
68 -16 24 15 -44 32 -157 78 -351 143 -231 78 -218 74 -200 55z"/>
<path d="M6557 3218 c-3 -7 -48 -120 -102 -251 -53 -131 -94 -244 -92 -250 2
-6 24 39 50 101 66 158 159 404 154 409 -3 2 -7 -2 -10 -9z"/>
<path d="M6455 3148 c-27 -58 -34 -101 -9 -55 19 36 45 107 38 107 -3 0 -16
-24 -29 -52z"/>
<path d="M6572 3127 c-7 -16 -12 -31 -12 -33 0 -22 -117 -311 -182 -447 -44
-93 -77 -171 -75 -174 7 -7 120 219 180 362 69 166 109 282 104 303 -3 13 -7
10 -15 -11z"/>
<path d="M6357 2896 c-48 -130 -62 -187 -26 -107 32 73 80 213 76 225 -2 5
-24 -47 -50 -118z"/>
<path d="M1307 3734 c-11 -12 3 -24 29 -24 16 0 24 5 22 13 -5 13 -40 22 -51
11z"/>
<path d="M11510 3973 c0 -7 84 -140 96 -152 2 -2 7 -2 10 1 11 12 -78 158 -96
158 -6 0 -10 -3 -10 -7z"/>
<path d="M11590 3963 c0 -22 48 -103 61 -103 14 0 2 37 -27 83 -27 41 -34 45
-34 20z"/>
<path d="M11341 3938 c41 -78 199 -301 207 -293 7 6 -200 315 -210 315 -5 0
-3 -10 3 -22z"/>
<path d="M11443 3927 c10 -28 114 -182 134 -198 20 -16 21 -19 -45 91 -49 83
-104 149 -89 107z"/>
<path d="M11264 3865 c45 -71 248 -337 253 -332 10 11 -211 314 -253 347 -18
14 -18 13 0 -15z"/>
<path d="M11136 3860 c18 -26 281 -353 317 -395 19 -22 38 -37 42 -34 7 8
-286 368 -336 414 -18 17 -29 23 -23 15z"/>
<path d="M11086 3751 c22 -42 353 -405 362 -397 9 9 -103 139 -238 277 -72 74
-128 128 -124 120z"/>
<path d="M11077 3594 c114 -126 322 -329 329 -321 7 7 -350 373 -381 390 -11
5 12 -25 52 -69z"/>
<path d="M11047 3475 c25 -35 277 -269 296 -273 15 -4 -190 198 -263 258 -47
39 -52 41 -33 15z"/>
<path d="M9401 3628 c-13 -70 -20 -164 -11 -147 4 8 13 43 19 79 6 36 14 77
17 93 3 15 1 27 -4 27 -6 0 -15 -24 -21 -52z"/>
<path d="M9351 3613 c-14 -55 -24 -139 -16 -131 11 11 43 168 34 168 -4 0 -12
-17 -18 -37z"/>
<path d="M9286 3569 c-3 -17 -5 -50 -5 -73 l1 -41 13 50 c16 61 18 95 6 95 -5
0 -11 -14 -15 -31z"/>
<path d="M9895 3697 c-16 -26 -45 -174 -45 -234 0 -35 15 -45 24 -15 12 40 48
264 43 269 -3 2 -13 -7 -22 -20z"/>
<path d="M9819 3643 c-16 -42 -24 -221 -10 -207 11 10 41 163 41 212 0 30 -18
28 -31 -5z"/>
<path d="M9762 3634 c-14 -27 -25 -166 -13 -183 9 -14 24 43 34 135 6 50 -6
76 -21 48z"/>
<path d="M2022 3433 c-26 -56 -27 -64 -26 -218 1 -176 17 -263 71 -374 l27
-56 4 36 c1 19 -13 107 -33 194 -40 181 -43 243 -15 369 23 105 23 106 9 106
-5 0 -22 -26 -37 -57z"/>
<path d="M2860 3439 c0 -12 109 -63 157 -73 41 -9 52 9 16 27 -24 12 -157 57
-169 57 -2 0 -4 -5 -4 -11z"/>
<path d="M2906 3356 c29 -21 104 -50 110 -43 18 18 -53 57 -103 57 -27 0 -27
0 -7 -14z"/>
<path d="M2860 3312 c0 -15 81 -52 113 -52 62 0 8 40 -75 55 -24 5 -38 3 -38
-3z"/>
<path d="M2780 3276 c21 -21 116 -56 148 -56 l27 1 -23 19 c-25 21 -111 50
-146 50 -18 0 -18 -2 -6 -14z"/>
<path d="M2709 3246 c15 -18 173 -86 200 -86 24 0 27 12 9 28 -16 13 -184 72
-205 72 -12 0 -13 -3 -4 -14z"/>
<path d="M2630 3220 c0 -14 17 -28 59 -49 62 -32 171 -71 196 -71 47 0 -17 43
-132 89 -27 11 -65 27 -85 35 -37 16 -38 16 -38 -4z"/>
<path d="M11071 2879 c6 -12 42 -53 81 -92 52 -54 65 -64 51 -39 -10 19 -42
60 -71 93 -54 60 -82 77 -61 38z"/>
<path d="M11030 2810 c0 -14 146 -167 173 -181 30 -17 19 7 -28 59 -58 65
-145 138 -145 122z"/>
<path d="M11080 2670 c0 -14 88 -108 113 -121 17 -10 18 -9 2 21 -34 67 -115
136 -115 100z"/>
<path d="M10881 2532 c12 -19 69 -62 82 -62 17 0 -15 40 -47 59 -41 26 -50 26
-35 3z"/>
<path d="M10850 2481 c0 -15 85 -81 105 -81 16 0 16 3 -6 26 -27 30 -99 69
-99 55z"/>
<path d="M10794 2411 c13 -21 127 -101 143 -101 23 0 1 23 -62 65 -63 41 -92
54 -81 36z"/>
<path d="M10750 2341 c0 -14 133 -101 155 -101 18 0 -3 21 -57 56 -68 44 -98
58 -98 45z"/>
<path d="M9795 2286 c19 -28 123 -111 131 -104 6 7 -123 128 -137 128 -5 0 -2
-11 6 -24z"/>
<path d="M9890 2301 c0 -11 108 -111 121 -111 22 0 5 23 -52 70 -63 52 -69 56
-69 41z"/>
<path d="M9729 2251 c24 -33 78 -81 92 -81 20 0 7 20 -42 64 -58 52 -80 60
-50 17z"/>
<path d="M10048 2249 c19 -17 36 -28 40 -25 9 9 -40 56 -57 56 -11 0 -5 -11
17 -31z"/>
<path d="M10773 2225 c15 -14 36 -25 45 -25 13 1 11 6 -11 25 -15 14 -36 25
-45 25 -13 -1 -11 -6 11 -25z"/>
<path d="M10490 2075 c13 -14 39 -28 59 -31 20 -4 47 -15 60 -25 13 -11 30
-19 37 -19 7 0 25 -12 39 -27 37 -40 31 -14 -12 51 -38 58 -55 71 -46 36 7
-27 -1 -25 -43 7 -28 21 -37 24 -44 13 -6 -10 -12 -10 -31 4 -35 24 -46 19
-19 -9z"/>
<path d="M10707 2032 c23 -42 101 -132 115 -132 9 0 -36 57 -105 134 l-28 31
18 -33z"/>
<path d="M12430 725 c0 -8 13 -29 30 -47 24 -27 31 -30 39 -19 13 20 -3 47
-39 66 -27 14 -30 14 -30 0z"/>
<path d="M8712 2634 c6 -25 208 -308 268 -377 45 -51 63 -57 34 -10 -39 60
-259 359 -282 383 -23 23 -24 24 -20 4z"/>
<path d="M8850 2634 c0 -21 91 -174 151 -254 112 -151 207 -241 253 -239 20 0
20 1 -4 17 -88 59 -217 209 -329 385 -59 90 -71 106 -71 91z"/>
<path d="M8622 2578 c82 -133 249 -338 276 -338 24 0 11 23 -56 98 -37 43
-105 126 -151 185 -88 114 -122 141 -69 55z"/>
<path d="M8389 2548 c67 -93 221 -239 221 -209 0 13 -185 206 -223 233 l-32
23 34 -47z"/>
<path d="M9010 2584 c0 -17 110 -182 197 -296 74 -97 153 -178 174 -178 11 0
-38 66 -67 91 -26 21 -124 145 -201 254 -92 130 -102 142 -103 129z"/>
<path d="M8270 2554 c29 -35 144 -137 161 -143 35 -11 -114 133 -165 161 -17
9 -16 6 4 -18z"/>
<path d="M8527 2538 c93 -124 188 -226 199 -215 11 11 -179 227 -199 227 -6 0
-6 -5 0 -12z"/>
<path d="M9170 2503 c0 -25 242 -353 261 -353 17 0 10 12 -74 124 -45 61 -99
134 -120 162 -39 55 -67 82 -67 67z"/>
<path d="M7832 2111 c2 -6 26 -27 54 -48 29 -21 77 -58 108 -82 31 -24 60 -40
64 -36 9 9 -84 95 -152 141 -49 33 -81 44 -74 25z"/>
<path d="M7780 2071 c0 -22 234 -211 246 -199 8 9 -143 144 -196 177 -28 17
-50 27 -50 22z"/>
<path d="M7762 1984 c3 -19 141 -144 158 -144 30 0 -67 107 -130 144 -30 17
-32 17 -28 0z"/>
<path d="M7750 1891 c0 -28 93 -101 104 -82 3 5 -14 27 -39 50 -43 40 -65 51
-65 32z"/>
<path d="M6365 1883 c-31 -8 -45 -23 -45 -52 -1 -25 -1 -25 -15 -7 -15 20 -15
20 -15 0 0 -10 -7 -32 -16 -49 -20 -38 -3 -105 27 -105 16 0 39 32 39 56 0 15
6 24 15 24 9 0 15 9 15 24 0 13 9 35 21 50 32 41 20 70 -26 59z"/>
<path d="M7590 1472 c0 -13 47 -32 78 -32 l27 1 -25 13 c-34 18 -80 28 -80 18z"/>
<path d="M7623 1405 c23 -17 176 -79 182 -73 8 7 -68 61 -104 74 -20 7 -49 13
-66 13 -28 0 -29 -1 -12 -14z"/>
<path d="M5841 976 c-13 -13 -21 -32 -19 -43 5 -26 24 -17 20 10 -3 18 -1 20
9 10 22 -22 39 -15 39 17 0 37 -18 39 -49 6z"/>
<path d="M5707 703 c-4 -3 -7 -15 -7 -26 0 -16 3 -17 15 -7 8 7 15 19 15 26 0
15 -12 19 -23 7z"/>
<path d="M5663 669 c-7 -7 -13 -22 -13 -33 0 -19 1 -19 16 -4 9 8 14 23 12 32
-2 14 -5 15 -15 5z"/>
<path d="M1670 2845 c-11 -13 -9 -15 15 -15 16 0 25 5 23 12 -7 19 -24 20 -38
3z"/>
<path d="M7230 2782 c0 -12 34 -42 48 -42 19 0 14 18 -10 34 -25 18 -38 20
-38 8z"/>
<path d="M7228 2700 c41 -40 77 -69 80 -65 8 8 -100 110 -133 126 -11 6 13
-22 53 -61z"/>
<path d="M7120 2684 c65 -66 182 -140 139 -87 -22 27 -159 133 -172 133 -6 0
9 -21 33 -46z"/>
<path d="M7096 2602 c56 -51 120 -89 131 -78 9 8 -14 27 -101 86 -78 54 -93
50 -30 -8z"/>
<path d="M7050 2551 c0 -14 80 -94 87 -88 8 9 -28 56 -58 78 -16 11 -29 16
-29 10z"/>
<path d="M1530 2560 c-12 -7 -12 -12 -2 -22 9 -9 15 -9 24 0 16 16 -2 34 -22
22z"/>
<path d="M4893 1618 c2 -7 12 -13 22 -13 10 0 20 6 23 13 2 7 -6 12 -23 12
-17 0 -25 -5 -22 -12z"/>
<path d="M4905 1569 c-4 -6 -4 -13 -1 -16 8 -8 36 5 36 17 0 13 -27 13 -35 -1z"/>
<path d="M4913 1518 c-26 -12 -31 -38 -9 -38 8 0 28 11 43 25 25 22 26 24 8
24 -11 0 -30 -5 -42 -11z"/>
<path d="M4945 1471 c-42 -19 -72 -47 -62 -58 10 -9 83 26 108 53 28 29 11 31
-46 5z"/>
<path d="M4949 1405 c-69 -25 -102 -46 -91 -57 13 -13 55 2 122 44 49 30 33
37 -31 13z"/>
<path d="M2734 1610 c9 -50 66 -168 84 -175 36 -14 -25 151 -71 192 -20 18
-20 17 -13 -17z"/>
<path d="M2838 729 c9 -10 50 -15 145 -17 102 -3 129 -1 120 8 -7 8 -61 14
-145 17 -112 5 -131 3 -120 -8z"/>
<path d="M2908 683 c-80 -9 -23 -33 76 -33 54 0 94 15 66 24 -26 8 -104 13
-142 9z"/>
<path d="M1457 790 c35 -14 233 -32 275 -25 69 12 40 22 -84 28 -167 9 -220 8
-191 -3z"/>
<path d="M1637 613 c-9 -8 12 -33 29 -33 20 0 28 21 13 31 -17 10 -33 11 -42
2z"/>
<path d="M2000 761 c0 -12 52 -21 120 -21 69 0 99 8 78 21 -17 11 -198 11
-198 0z"/>
<path d="M1907 711 c-20 -4 -40 -11 -43 -14 -13 -13 7 -37 43 -53 47 -20 293
-33 293 -16 0 11 -36 17 -162 28 -122 9 -103 24 31 24 123 0 168 13 83 24 -92
11 -207 15 -245 7z"/>
<path d="M1876 500 c6 -6 29 -16 50 -21 51 -11 244 -12 244 0 0 5 -39 12 -87
15 -49 4 -117 9 -153 12 -49 4 -62 3 -54 -6z"/>
<path d="M2380 741 c0 -9 40 -13 248 -25 81 -5 102 3 63 24 -24 12 -311 14
-311 1z"/>
<path d="M2340 682 c0 -19 250 -38 341 -26 47 6 50 8 28 16 -38 14 -369 23
-369 10z"/>
<path d="M2350 642 c0 -17 84 -38 224 -58 118 -16 152 -15 130 5 -5 5 -76 18
-159 30 -82 12 -160 24 -172 27 -14 4 -23 2 -23 -4z"/>
<path d="M2372 548 c3 -7 18 -16 34 -19 31 -7 336 -10 319 -4 -12 5 -298 35
-332 35 -15 0 -23 -5 -21 -12z"/>
<path d="M2390 460 c0 -16 50 -25 137 -25 120 0 129 20 12 28 -124 9 -149 9
-149 -3z"/>
<path d="M5539 606 c-12 -55 -8 -86 11 -86 6 0 10 29 10 70 0 39 -2 70 -4 70
-3 0 -10 -24 -17 -54z"/>
<path d="M5481 603 c-14 -48 -14 -101 -2 -87 10 10 26 124 18 124 -4 0 -11
-17 -16 -37z"/>
<path d="M8450 548 c0 -6 8 -20 18 -31 16 -19 16 -20 0 -14 -23 8 -24 -16 -2
-33 22 -19 49 9 41 42 -7 26 -57 58 -57 36z"/>
<path d="M11314 1568 c-166 -323 -201 -372 -315 -438 -88 -52 -109 -79 -109
-142 0 -59 -13 -67 -64 -37 -123 73 -293 -112 -299 -326 l-2 -70 31 1 c44 2
231 84 304 134 34 23 94 57 133 75 88 40 179 130 252 250 109 178 171 274 228
350 69 93 101 151 88 160 -13 7 -183 -221 -325 -436 -119 -182 -166 -236 -195
-223 -9 4 -28 9 -44 12 -23 4 -29 0 -41 -29 -14 -32 -35 -51 -166 -145 -57
-41 -121 -65 -180 -67 -35 -2 -35 -1 -34 38 1 104 134 286 184 255 12 -7 11
-20 -8 -78 -23 -71 -29 -142 -12 -142 5 0 20 35 33 78 l23 77 60 5 c70 6 108
27 122 69 9 25 7 34 -9 55 -10 13 -19 29 -19 34 0 10 37 27 83 38 15 3 40 23
56 43 119 151 282 467 251 486 -5 3 -17 -9 -26 -27z"/>
<path d="M11362 1513 c-25 -36 -148 -271 -157 -300 -5 -19 -3 -22 11 -16 14 5
15 3 4 -18 -7 -13 -24 -40 -38 -59 -24 -33 -24 -34 -3 -15 38 32 207 262 242
329 48 90 12 52 -81 -85 -44 -65 -85 -121 -90 -124 -22 -13 -7 22 50 127 63
114 93 178 86 185 -2 2 -13 -8 -24 -24z"/>
<path d="M712 800 c10 -6 108 -13 240 -16 174 -4 219 -3 204 7 -12 7 -93 13
-240 16 -160 3 -216 1 -204 -7z"/>
<path d="M532 765 c3 -3 147 -19 319 -35 173 -16 329 -32 347 -35 33 -6 45 9
15 19 -79 25 -396 56 -572 56 -63 0 -112 -2 -109 -5z"/>
<path d="M10673 747 c-7 -15 -13 -40 -13 -55 l1 -27 15 28 c8 15 14 40 12 55
l-3 27 -12 -28z"/>
<path d="M10622 733 c-7 -12 -12 -32 -12 -45 1 -22 1 -22 16 5 8 16 14 36 12
45 -3 14 -6 14 -16 -5z"/>
<path d="M455 681 c6 -6 55 -15 110 -21 55 -5 165 -17 245 -25 158 -16 390
-20 353 -5 -62 25 -728 74 -708 51z"/>
<path d="M4490 632 c0 -7 6 -12 13 -12 54 0 346 -22 407 -31 81 -11 130 -2
130 26 0 13 -19 15 -117 15 -65 0 -189 3 -275 7 -117 4 -158 3 -158 -5z"/>
<path d="M485 611 c-7 -12 57 -19 285 -31 102 -5 201 -6 220 -1 l35 8 -35 7
c-109 20 -494 33 -505 17z"/>
<path d="M3430 601 c8 -5 42 -11 75 -15 93 -10 676 -36 810 -36 142 0 195 -7
189 -25 -3 -7 5 -15 18 -19 24 -7 402 -25 523 -25 114 0 45 15 -105 23 -181 9
-241 16 -233 29 4 6 68 8 180 5 164 -5 228 2 145 16 -20 3 -305 13 -632 21
-327 9 -656 20 -730 25 -167 12 -260 12 -240 1z"/>
<path d="M1235 570 c-7 -12 39 -24 61 -16 8 3 12 10 9 16 -8 13 -62 13 -70 0z"/>
<path d="M7687 550 c13 -14 467 -39 480 -27 19 20 -33 27 -252 33 -194 5 -238
4 -228 -6z"/>
<path d="M3410 531 c0 -15 99 -21 455 -26 384 -5 398 6 29 24 -267 13 -484 14
-484 2z"/>
<path d="M7095 499 c642 -24 623 -26 -260 -29 -478 -1 -850 -6 -825 -10 25 -4
374 -10 775 -14 402 -3 829 -8 950 -11 121 -2 211 -2 200 1 -56 16 -24 21 93
16 77 -3 136 -1 147 5 13 8 -1 12 -61 17 -188 16 -487 26 -864 30 -379 4 -389
4 -155 -5z"/>
<path d="M3156 480 c14 -14 381 -30 664 -28 124 0 216 2 205 4 -37 6 -668 34
-774 34 -73 0 -102 -3 -95 -10z"/>
<path d="M4441 450 c20 -12 264 -37 429 -45 69 -3 159 -7 200 -9 41 -2 98 -1
125 3 l50 7 -35 7 c-19 4 -123 11 -230 17 -107 6 -244 15 -305 20 -143 13
-255 13 -234 0z"/>
<path d="M3120 432 c0 -6 17 -14 38 -17 20 -4 44 -8 52 -9 8 -1 -16 -6 -55
-10 -38 -4 -81 -10 -95 -13 l-25 -5 25 -10 c24 -10 215 -7 716 8 136 5 237 3
315 -6 131 -14 451 -28 441 -19 -21 19 -482 56 -862 69 -162 5 -352 13 -422
16 -90 5 -128 4 -128 -4z"/>
<path d="M9640 433 c0 -20 33 -24 286 -40 241 -15 310 -14 273 7 -43 25 -559
55 -559 33z"/>
<path d="M9045 422 c9 -9 479 -64 835 -97 528 -48 776 -65 903 -59 299 12 256
29 -98 38 -313 8 -529 24 -1280 96 -308 29 -371 33 -360 22z"/>
<path d="M4260 411 c71 -18 614 -53 775 -50 l50 1 -45 9 c-111 20 -853 58
-780 40z"/>
<path d="M8726 382 c-8 -13 12 -19 99 -27 39 -3 183 -19 320 -35 373 -44 695
-69 946 -74 255 -6 213 3 -146 29 -313 23 -617 52 -860 81 -285 34 -351 39
-359 26z"/>
<path d="M5360 360 c-43 -7 -42 -7 25 -10 39 -2 459 -4 935 -4 476 -1 906 -5
955 -9 68 -6 86 -6 72 3 -11 7 -122 15 -295 20 -319 11 -1625 10 -1692 0z"/>
<path d="M5175 301 c-42 -17 145 -23 494 -16 537 11 538 22 1 23 -261 0 -484
-3 -495 -7z"/>
<path d="M7626 301 c5 -4 122 -14 259 -20 248 -12 584 -32 845 -51 254 -18
715 -39 980 -44 364 -7 242 9 -225 29 -203 8 -469 22 -590 30 -121 9 -283 20
-360 25 -498 34 -929 49 -909 31z"/>
<path d="M7045 291 c-13 -22 36 -27 455 -46 184 -9 443 -22 575 -30 261 -16
773 -31 765 -22 -5 5 -108 12 -730 47 -195 11 -511 29 -702 40 -192 11 -350
20 -352 20 -3 0 -7 -4 -11 -9z"/>
<path d="M11020 201 c-23 -7 -22 -8 15 -14 22 -4 184 -11 360 -17 176 -5 357
-12 402 -15 45 -3 99 -3 120 1 34 6 35 8 15 15 -50 19 -865 45 -912 30z"/>
<path d="M10260 121 c34 -20 311 -44 700 -61 135 -6 288 -13 340 -17 90 -6 93
-7 50 -15 -61 -13 -334 -3 -755 27 -574 40 -691 46 -715 37 -43 -16 -4 -23
182 -33 101 -5 289 -19 418 -30 409 -36 981 -35 1025 1 7 6 40 14 72 17 32 2
72 11 88 18 17 7 97 15 189 19 147 6 176 9 165 20 -6 5 -783 25 -788 20 -8 -8
9 -17 46 -25 62 -14 -527 -1 -732 16 -216 17 -308 19 -285 6z"/>
</g>
</svg>
