<?xml version="1.0" standalone="no"?>
<!DOCTYPE svg PUBLIC "-//W3C//DTD SVG 20010904//EN"
 "http://www.w3.org/TR/2001/REC-SVG-20010904/DTD/svg10.dtd">
<svg version="1.0" xmlns="http://www.w3.org/2000/svg"
 width="543.000000pt" height="100.000000pt" viewBox="0 0 543.000000 100.000000"
 preserveAspectRatio="xMidYMid meet">
<metadata>
Created by potrace 1.16, written by Peter Selinger 2001-2019
</metadata>
<g transform="translate(0.000000,100.000000) scale(0.100000,-0.100000)"
fill="#000000" stroke="none">
<path d="M637 863 c-4 -3 -7 -35 -7 -69 0 -71 -11 -86 -102 -145 -27 -17 -48
-34 -48 -38 0 -4 10 -17 23 -29 l23 -22 46 29 c26 16 49 27 52 24 3 -4 6 -36
6 -73 0 -62 -2 -68 -25 -78 -35 -16 -34 -46 1 -38 25 7 26 5 20 -21 -25 -99
-105 -160 -199 -150 l-52 5 39 -34 c61 -53 136 -78 236 -79 72 0 94 4 143 27
60 28 137 83 137 98 0 4 -15 3 -34 -2 -41 -13 -90 -5 -133 22 -35 21 -54 46
-78 103 l-15 38 25 -7 c36 -9 33 17 -6 40 -27 16 -30 22 -25 48 3 17 6 48 6
70 l0 40 54 -30 54 -31 22 23 21 24 -75 57 -76 57 0 58 c0 77 -11 105 -33 83z"/>
<path d="M1500 808 c-101 -51 -107 -191 -11 -255 64 -43 161 -22 202 44 32 51
24 141 -16 183 -27 28 -78 50 -115 50 -9 0 -36 -10 -60 -22z m115 -73 c67 -66
-15 -174 -92 -120 -43 30 -37 110 10 133 35 17 56 14 82 -13z"/>
<path d="M3670 808 c-103 -52 -107 -197 -8 -258 65 -39 160 -17 199 47 32 51
24 141 -16 183 -27 28 -78 50 -115 50 -9 0 -36 -10 -60 -22z m115 -73 c67 -66
-15 -174 -92 -120 -43 30 -37 110 10 133 35 17 56 14 82 -13z"/>
<path d="M5055 816 c-42 -18 -59 -42 -59 -83 0 -44 40 -83 85 -83 34 0 69 -16
69 -31 0 -5 -11 -14 -25 -21 -19 -9 -29 -8 -49 6 -28 18 -86 22 -86 5 0 -40
56 -79 115 -79 67 0 115 39 115 93 0 42 -31 69 -90 78 -59 9 -76 20 -67 43 7
18 62 22 72 6 9 -15 75 -13 75 3 0 25 -32 56 -68 67 -46 12 -50 12 -87 -4z"/>
<path d="M1250 790 c0 -24 4 -30 20 -30 19 0 21 -5 18 -77 -3 -73 -5 -78 -26
-81 -30 -5 -52 14 -52 44 0 20 -5 24 -30 24 -28 0 -30 -2 -30 -38 0 -48 21
-77 66 -92 28 -10 46 -10 75 -1 61 18 69 39 69 168 l0 113 -55 0 c-54 0 -55 0
-55 -30z"/>
<path d="M1770 710 c0 -106 1 -111 28 -140 34 -38 84 -48 135 -26 52 21 67 61
67 181 l0 95 -35 0 -35 0 0 -99 c0 -109 -8 -125 -57 -119 l-28 3 -3 108 -3
107 -34 0 -35 0 0 -110z"/>
<path d="M2070 680 l0 -140 35 0 c34 0 35 1 35 40 0 35 3 40 23 40 15 0 28
-11 42 -38 18 -33 25 -37 63 -40 23 -2 42 -1 42 3 0 3 -12 23 -26 44 l-25 39
20 33 c25 40 26 70 6 109 -22 42 -43 50 -134 50 l-81 0 0 -140z"/>
<path d="M2360 680 l0 -140 35 0 35 0 0 65 c0 36 3 65 7 65 3 0 39 -32 79 -71
41 -39 78 -68 84 -64 6 4 10 61 10 146 l0 139 -40 0 -39 0 -3 -65 -3 -65 -70
65 c-38 35 -76 64 -82 65 -10 0 -13 -34 -13 -140z"/>
<path d="M2680 680 l0 -140 90 0 90 0 0 30 c0 30 -1 30 -55 30 -52 0 -55 1
-55 25 0 23 3 25 50 25 50 0 50 0 50 33 0 32 -1 32 -47 32 -42 0 -48 3 -51 23
-3 21 0 22 52 22 56 0 56 0 56 30 l0 30 -90 0 -90 0 0 -140z"/>
<path d="M2900 813 c0 -3 20 -39 45 -79 41 -65 45 -78 45 -133 l0 -61 35 0 35
0 0 54 c0 48 6 64 50 135 28 44 50 83 50 86 0 3 -18 5 -40 5 -38 0 -42 -3 -62
-45 -12 -25 -25 -45 -28 -45 -3 0 -16 20 -30 45 -22 41 -28 45 -62 45 -21 0
-38 -3 -38 -7z"/>
<path d="M3320 680 l0 -140 35 0 c34 0 35 1 35 40 0 55 31 55 62 0 21 -37 26
-40 66 -40 l43 0 -28 49 c-25 46 -26 51 -11 68 39 45 27 123 -23 148 -17 9
-57 15 -104 15 l-75 0 0 -140z"/>
<path d="M3940 710 c0 -106 1 -111 28 -140 34 -38 84 -48 135 -26 52 21 67 61
67 181 l0 95 -35 0 -35 0 0 -99 c0 -109 -8 -125 -57 -119 l-28 3 -3 108 -3
107 -34 0 -35 0 0 -110z"/>
<path d="M4210 790 c0 -28 3 -30 35 -30 l35 0 0 -110 0 -110 35 0 35 0 0 110
0 110 35 0 c32 0 35 2 35 30 l0 30 -105 0 -105 0 0 -30z"/>
<path d="M4470 680 l0 -140 90 0 90 0 0 30 c0 30 -1 30 -55 30 -52 0 -55 1
-55 25 0 23 3 25 50 25 50 0 50 0 50 33 0 32 -1 32 -47 32 -42 0 -48 3 -51 23
-3 21 0 22 52 22 56 0 56 0 56 30 l0 30 -90 0 -90 0 0 -140z"/>
<path d="M4720 680 l0 -140 35 0 c34 0 35 1 35 40 0 35 3 40 23 40 15 0 28
-11 42 -38 18 -33 25 -37 63 -40 23 -2 42 -1 42 3 0 3 -12 23 -26 44 l-25 39
20 33 c25 40 26 70 6 109 -22 42 -43 50 -134 50 l-81 0 0 -140z"/>
<path d="M3500 355 c0 -33 -1 -34 -25 -23 -54 24 -104 -30 -87 -95 10 -38 51
-62 85 -51 12 5 28 7 35 6 9 -2 12 23 12 98 0 60 -4 100 -10 100 -5 0 -10 -16
-10 -35z"/>
<path d="M3960 290 c0 -78 3 -100 14 -100 9 0 13 12 13 38 -1 37 -1 37 45 42
57 7 78 24 78 64 0 46 -16 56 -87 56 l-63 0 0 -100z"/>
<path d="M2253 325 c-44 -31 -30 -126 20 -139 37 -9 76 9 88 41 28 75 -45 142
-108 98z"/>
<path d="M3105 315 c-51 -50 -20 -129 50 -129 46 0 65 23 65 76 0 72 -66 103
-115 53z"/>
<path d="M4804 326 c-28 -20 -36 -63 -19 -103 12 -28 19 -33 47 -33 19 0 39 5
46 12 9 9 12 6 12 -14 0 -46 -34 -58 -94 -33 -14 6 -17 5 -12 -4 21 -33 97
-31 118 2 4 7 8 49 8 94 0 71 -2 82 -17 82 -10 0 -29 3 -43 6 -15 4 -33 0 -46
-9z"/>
</g>
</svg>
