<?xml version="1.0" standalone="no"?>
<!DOCTYPE svg PUBLIC "-//W3C//DTD SVG 20010904//EN"
 "http://www.w3.org/TR/2001/REC-SVG-20010904/DTD/svg10.dtd">
<svg version="1.0" xmlns="http://www.w3.org/2000/svg"
 width="500.000000pt" height="500.000000pt" viewBox="0 0 500.000000 500.000000"
 preserveAspectRatio="xMidYMid meet">

<g transform="translate(0.000000,500.000000) scale(0.100000,-0.100000)"
fill="#000000" stroke="none">
<path d="M2430 4327 c-41 -21 -51 -79 -60 -352 -5 -137 -9 -276 -9 -307 l-1
-56 -167 -134 c-179 -143 -359 -273 -485 -352 -43 -26 -78 -51 -78 -55 0 -10
29 -48 134 -174 59 -71 93 -104 100 -98 21 16 466 291 481 297 11 5 15 -1 15
-22 0 -16 9 -148 20 -294 11 -146 20 -290 20 -322 l0 -56 -97 -64 c-54 -35
-115 -74 -135 -87 l-38 -23 0 -69 c0 -38 4 -69 10 -69 5 0 62 20 126 45 64 25
118 45 121 45 9 0 -8 -91 -33 -176 -53 -186 -160 -388 -261 -494 -150 -160
-345 -236 -624 -247 -144 -6 -308 9 -319 27 -3 5 -11 5 -18 1 -18 -11 151
-170 269 -255 198 -142 473 -258 739 -312 120 -25 156 -28 330 -28 234 0 370
21 576 89 300 99 538 247 760 476 104 108 141 155 130 166 -3 3 -6 1 -6 -5 0
-14 -136 -66 -235 -88 -107 -25 -284 -24 -380 1 -319 82 -559 330 -697 720
-14 39 -28 82 -32 97 l-6 26 115 -46 c63 -25 118 -43 121 -39 12 11 16 92 6
118 -7 17 -53 52 -141 108 -114 73 -131 87 -131 110 0 14 9 145 20 291 11 146
20 285 20 310 0 25 4 51 9 58 6 11 67 -20 262 -132 l253 -146 54 58 c29 31 73
83 97 114 23 31 45 55 48 52 2 -2 4 4 3 15 -1 15 -62 64 -206 167 -162 115
-445 332 -505 385 -5 5 -12 133 -16 287 -8 319 -19 403 -56 432 -29 23 -67 25
-103 7z"/>
</g>
</svg>
