<?xml version="1.0" standalone="no"?>
<!DOCTYPE svg PUBLIC "-//W3C//DTD SVG 20010904//EN"
 "http://www.w3.org/TR/2001/REC-SVG-20010904/DTD/svg10.dtd">
<svg version="1.0" xmlns="http://www.w3.org/2000/svg"
 width="1280.000000pt" height="640.000000pt" viewBox="0 0 1280.000000 640.000000"
 preserveAspectRatio="xMidYMid meet">
<metadata>
Created by potrace 1.15, written by Peter Selinger 2001-2017
</metadata>
<g transform="translate(0.000000,640.000000) scale(0.100000,-0.100000)"
fill="#000000" stroke="none">
<path d="M6593 5311 c1 -408 -2 -636 -12 -783 l-14 -207 -61 -5 c-34 -3 -173
-10 -311 -16 -256 -11 -1908 -85 -3137 -141 l-686 -31 -175 141 c-97 77 -178
148 -180 158 -3 10 -13 77 -23 150 -9 72 -20 137 -24 143 -7 11 -267 41 -282
33 -5 -2 -8 -17 -8 -34 0 -16 -2 -29 -4 -29 -3 0 -245 193 -539 428 -293 236
-538 432 -544 435 -10 6 -483 -39 -490 -47 -2 -2 199 -340 446 -752 l449 -749
-106 -12 c-116 -12 -231 -44 -258 -70 -13 -14 -16 -32 -12 -100 6 -113 33
-152 141 -208 l78 -39 -64 -41 c-36 -22 -225 -141 -421 -265 -201 -127 -349
-227 -340 -228 9 -2 116 6 238 18 l221 23 275 107 c151 59 349 137 439 174
l164 65 86 -24 c153 -44 1045 -246 1302 -295 73 -14 400 -38 819 -60 1485 -77
1710 -91 1850 -115 47 -8 115 -15 153 -15 37 0 67 -3 67 -8 0 -16 -304 -395
-368 -458 -16 -16 -574 -438 -1240 -939 l-1211 -910 32 -33 c84 -87 222 -76
426 34 364 197 1699 962 2336 1338 42 25 86 46 98 46 12 0 116 -18 232 -40
484 -91 760 -120 1163 -120 l192 0 38 39 c96 99 131 386 63 518 -31 61 -91
120 -136 132 -94 26 -309 11 -632 -44 -83 -14 -157 -25 -164 -25 -8 0 139 102
326 228 l340 227 155 6 c115 5 196 14 315 38 187 38 369 82 475 116 41 13 100
26 130 29 147 15 742 38 1595 61 1349 36 1639 45 1750 55 238 22 877 193 1080
290 83 39 149 92 165 130 16 38 1 159 -26 216 -31 66 -119 123 -302 198 -99
40 -158 73 -269 150 -158 108 -291 175 -408 205 -226 60 -901 114 -1225 99
-85 -4 -663 -30 -1285 -58 -621 -28 -1258 -57 -1415 -64 -157 -7 -286 -13
-286 -12 -2 1 -246 644 -431 1136 -64 168 -117 306 -118 307 -1 2 -91 19 -201
38 -109 19 -207 37 -216 39 -16 4 -17 -34 -15 -573z m674 -2816 c45 -19 104
-88 117 -135 4 -15 -2 -9 -15 15 -28 53 -68 95 -91 95 -27 0 -67 -29 -82 -59
-35 -66 -48 -318 -22 -405 8 -26 31 -67 51 -91 20 -25 32 -45 27 -45 -6 0 -13
6 -15 13 -3 7 -6 5 -6 -5 -2 -50 84 9 121 82 31 62 38 54 9 -12 -10 -24 -33
-56 -51 -73 l-32 -30 -196 3 c-226 2 -451 16 -632 36 -138 16 -720 118 -720
126 1 3 114 70 252 150 138 80 292 171 342 204 99 64 89 61 381 107 308 49
484 57 562 24z m130 -197 c-3 -7 -5 -2 -5 12 0 14 2 19 5 13 2 -7 2 -19 0 -25z
m10 -151 c-2 -23 -3 -1 -3 48 0 50 1 68 3 42 2 -26 2 -67 0 -90z m-10 -79 c-3
-7 -5 -2 -5 12 0 14 2 19 5 13 2 -7 2 -19 0 -25z m-10 -40 c-3 -8 -6 -5 -6 6
-1 11 2 17 5 13 3 -3 4 -12 1 -19z"/>
<path d="M6875 2485 c-55 -8 -180 -27 -279 -44 -177 -30 -179 -31 -255 -80
-42 -27 -186 -113 -321 -192 -135 -78 -249 -145 -253 -149 -19 -16 534 -110
801 -135 163 -16 569 -33 625 -27 23 3 27 7 21 24 -4 15 -3 18 6 13 9 -5 11
-4 6 4 -4 6 -11 9 -15 7 -17 -11 -64 109 -67 174 -8 137 37 400 68 400 5 0 4
-9 -2 -21 -11 -20 -10 -20 20 2 27 21 29 24 13 31 -29 11 -260 7 -368 -7z
m309 -7 c-5 -7 -20 -31 -35 -53 -14 -22 -40 -75 -56 -118 -25 -65 -29 -86 -22
-120 4 -23 8 -64 9 -90 0 -41 -5 -53 -28 -75 -16 -15 -55 -36 -88 -47 -101
-34 -433 -26 -972 26 -62 5 -132 14 -155 19 l-42 9 50 -4 c28 -3 145 -14 260
-24 492 -47 765 -50 866 -11 97 36 111 66 90 192 -7 41 -3 59 25 132 32 83 53
124 82 159 17 20 27 23 16 5z"/>
</g>
</svg>
