<?xml version="1.0" standalone="no"?>
<!DOCTYPE svg PUBLIC "-//W3C//DTD SVG 20010904//EN"
 "http://www.w3.org/TR/2001/REC-SVG-20010904/DTD/svg10.dtd">
<svg version="1.0" xmlns="http://www.w3.org/2000/svg"
 width="1280.000000pt" height="804.000000pt" viewBox="0 0 1280.000000 804.000000"
 preserveAspectRatio="xMidYMid meet">
<metadata>
Created by potrace 1.15, written by Peter Selinger 2001-2017
</metadata>
<g transform="translate(0.000000,804.000000) scale(0.100000,-0.100000)"
fill="#000000" stroke="none">
<path d="M4805 8008 l-160 -29 -220 -116 c-121 -64 -605 -346 -1075 -626
l-854 -508 -53 16 c-41 13 -71 15 -126 10 -65 -6 -271 -44 -340 -63 l-28 -7
66 -89 c37 -48 65 -89 63 -90 -1 -1 -14 -7 -28 -14 -149 -76 -2045 -1130
-2045 -1137 0 -14 97 -33 172 -34 47 -1 80 6 135 28 240 96 1489 671 1848 851
56 28 106 50 110 48 5 -2 223 -289 485 -638 l477 -635 -6 -73 -7 -72 87 -143
c48 -78 94 -152 101 -163 13 -20 9 -25 -74 -85 -178 -129 -192 -151 -193 -300
0 -88 3 -101 32 -160 22 -44 59 -91 118 -150 72 -73 101 -94 180 -132 52 -25
154 -66 226 -91 l131 -44 153 9 c84 5 170 14 190 19 41 11 144 76 174 109 18
20 19 19 120 -48 113 -76 218 -180 294 -292 73 -108 167 -195 338 -314 l72
-50 -262 -141 c-1061 -574 -4776 -2572 -4799 -2582 -39 -17 -53 -52 -38 -101
6 -21 19 -48 29 -60 21 -25 222 -85 344 -102 l83 -11 1215 560 c668 307 2004
923 2969 1367 l1754 809 520 91 520 92 566 -109 c1064 -204 1975 -369 2221
-403 285 -39 1199 -39 1330 0 158 47 362 212 431 348 29 56 52 173 44 227 -17
122 -99 306 -203 455 -63 89 -277 309 -392 402 -160 128 -358 261 -493 330
-74 37 -244 96 -441 153 -159 46 -175 53 -295 128 -334 211 -404 247 -601 314
-160 54 -357 108 -397 108 -13 0 -23 4 -21 9 2 5 801 672 1776 1482 975 810
1771 1477 1769 1483 -5 14 -158 45 -222 46 -64 0 -149 -22 -245 -64 -54 -23
-642 -424 -2127 -1450 l-2053 -1418 -287 21 c-159 11 -466 32 -683 46 -217 14
-419 28 -447 31 l-53 5 30 25 c22 19 37 49 61 122 35 110 35 153 -1 297 -25
96 -35 113 -107 169 -82 65 -146 97 -211 106 -76 10 -608 -33 -812 -66 -205
-32 -239 -49 -328 -160 -95 -118 -112 -154 -112 -228 0 -34 4 -77 9 -97 8 -33
6 -38 -23 -61 l-31 -25 -456 -6 c-418 -6 -458 -5 -470 10 -32 38 -1042 972
-1317 1217 -73 65 -131 123 -130 128 2 5 498 348 1103 762 605 414 1100 758
1100 766 0 7 -4 14 -10 16 -5 1 -82 -11 -170 -28z m94 -23 c-3 -2 -488 -335
-1079 -739 l-1074 -734 -65 55 c-37 30 -87 72 -113 92 -26 20 -47 39 -47 42
-2 12 1715 1028 1919 1135 187 100 213 111 310 130 104 22 158 28 149 19z
m7771 -137 c38 -7 70 -15 70 -18 0 -8 -3517 -2932 -3540 -2943 -10 -5 -87 -2
-181 6 -90 9 -309 26 -486 39 -178 12 -323 25 -323 28 2 14 4051 2799 4118
2832 131 63 217 77 342 56z m-10228 -1134 c7 -4 3 -13 -11 -24 -22 -16 -20
-18 146 -117 143 -86 192 -122 328 -244 218 -194 437 -395 849 -779 192 -179
380 -353 417 -388 l68 -63 443 7 443 7 -29 -32 c-16 -17 -28 -32 -25 -34 4 -4
738 -41 1126 -58 249 -10 272 -8 370 28 38 14 75 13 445 -11 624 -40 999 -66
1047 -72 l44 -6 -29 -23 -29 -24 25 -1 c14 0 252 -20 530 -45 278 -25 512 -45
521 -45 9 0 33 14 54 30 21 17 45 28 54 26 9 -2 37 -7 63 -11 l47 -6 -3 -49
c-2 -42 -8 -56 -36 -86 -19 -20 -56 -48 -83 -63 l-48 -28 327 -275 326 -275
258 159 258 159 33 -20 c19 -11 72 -29 117 -41 172 -43 428 -133 529 -185 290
-150 666 -459 830 -681 108 -146 195 -327 213 -441 12 -73 -5 -174 -39 -242
-64 -124 -271 -288 -414 -327 -131 -37 -1038 -36 -1307 1 -296 41 -1098 187
-2440 445 l-356 68 -525 -92 -524 -93 -360 -165 c-198 -91 -1197 -552 -2220
-1023 -1023 -471 -2197 -1012 -2608 -1202 l-749 -344 -71 11 c-84 13 -120 21
-239 57 -83 25 -88 27 -102 65 -9 21 -16 45 -16 52 0 8 30 29 68 48 37 19
1193 641 2569 1382 l2503 1349 -83 55 c-192 129 -287 215 -367 331 -78 114
-184 220 -295 294 -49 33 -92 61 -94 63 -2 2 17 28 43 58 68 80 79 122 74 270
-3 109 -7 128 -32 180 -35 71 -156 196 -224 230 -26 13 -67 29 -91 36 -47 12
-345 14 -572 4 l-136 -7 -102 166 -101 166 8 70 8 69 -464 619 c-255 340 -472
630 -483 645 l-19 26 107 57 c115 61 163 92 163 104 0 5 -36 22 -79 40 -77 30
-86 31 -223 31 l-144 0 -39 53 c-21 28 -49 66 -62 83 l-23 31 103 22 c181 38
303 47 339 25z m134 -101 c-7 -7 -105 60 -100 68 3 5 27 -8 54 -28 27 -20 48
-38 46 -40z m-393 -239 l78 -104 -178 -86 c-483 -233 -1097 -518 -1518 -703
-340 -151 -322 -145 -422 -138 -83 6 -102 11 -91 23 20 19 2017 1113 2033
1113 14 0 44 -33 98 -105z m293 80 c36 -15 62 -30 57 -35 -12 -12 -233 -129
-243 -129 -4 0 -40 43 -79 95 l-71 95 135 0 c122 0 141 -2 201 -26z m4059
-729 c67 -33 161 -108 179 -144 9 -16 25 -79 38 -140 22 -109 22 -112 5 -178
-29 -110 -55 -155 -107 -180 -44 -21 -47 -21 -240 -8 -107 7 -386 23 -620 35
-234 12 -462 24 -507 27 l-82 5 30 25 c23 20 27 28 18 39 -14 17 -24 130 -15
176 9 49 145 217 204 250 65 37 280 72 637 102 317 28 388 26 460 -9z m-562
-656 c286 -16 529 -29 540 -29 22 -1 22 -1 2 -13 -33 -20 -497 -7 -1170 33
-88 6 -173 10 -189 10 -28 0 -28 1 -12 19 15 16 30 18 164 14 81 -2 380 -18
665 -34z m2352 -154 c161 -9 746 -55 793 -61 40 -6 42 -7 23 -20 -17 -12 -81
-9 -473 26 -249 22 -470 41 -490 42 -38 2 -49 12 -25 21 6 3 26 4 42 2 17 -2
75 -7 130 -10z m1212 -165 c248 -76 266 -84 576 -268 98 -58 174 -108 170
-112 -4 -4 -109 -69 -233 -144 -147 -91 -228 -135 -236 -130 -7 5 -143 119
-303 254 -283 239 -290 245 -268 260 12 8 43 34 69 58 38 36 48 52 54 88 5 35
10 44 23 40 9 -3 75 -24 148 -46z m-5417 -260 c94 -18 158 -55 237 -136 90
-93 107 -125 123 -236 20 -145 -1 -233 -77 -318 -41 -45 -41 -45 -72 -30 l-32
15 44 32 c67 47 112 143 111 237 -3 316 -413 396 -523 102 -11 -31 -21 -79
-21 -105 l0 -49 -112 64 -112 63 -107 173 c-58 95 -104 175 -102 178 3 3 109
8 236 11 128 3 260 6 293 7 34 1 85 -3 114 -8z m-548 -235 l93 -150 128 -71
c121 -67 129 -74 153 -123 51 -101 153 -158 266 -148 45 4 67 1 89 -11 16 -10
29 -20 29 -25 0 -14 -122 -97 -158 -107 -20 -6 -102 -15 -181 -21 -166 -13
-173 -11 -393 73 -152 59 -225 105 -312 199 -94 101 -119 158 -119 267 0 135
19 164 199 291 l69 50 22 -37 c12 -20 64 -104 115 -187z m728 37 c62 -31 112
-94 131 -165 15 -57 6 -154 -20 -204 -23 -46 -83 -109 -112 -118 -13 -4 -77
26 -194 90 l-175 97 0 62 c1 103 42 182 122 232 77 49 156 51 248 6z m-200
-429 c76 -43 137 -79 135 -81 -2 -2 -27 -4 -56 -4 -72 1 -149 40 -194 99 -33
43 -42 63 -29 63 3 0 68 -35 144 -77z"/>
<path d="M9020 4523 c-157 -97 -340 -163 -450 -163 l-69 0 -20 -64 c-43 -141
-56 -275 -41 -431 38 -389 115 -535 284 -535 23 0 39 5 42 15 3 8 220 153 482
321 263 169 482 312 489 318 8 8 -68 77 -299 271 -170 143 -321 269 -336 281
l-27 21 -55 -34z m370 -264 c171 -144 307 -266 303 -270 -4 -4 -215 -141 -468
-304 -253 -164 -468 -306 -478 -317 -33 -34 -113 -5 -166 59 -100 121 -151
579 -90 808 l25 90 79 7 c117 10 294 77 430 162 22 14 43 26 47 26 4 0 148
-118 318 -261z"/>
<path d="M5491 4305 c-45 -121 -47 -215 -5 -354 15 -52 13 -51 87 -66 46 -9
47 -6 47 241 l0 234 -54 0 -55 0 -20 -55z m101 -177 c3 -112 3 -206 -1 -211
-4 -4 -21 -5 -38 -1 -27 5 -32 12 -46 62 -25 90 -30 152 -17 222 18 101 33
130 68 130 l29 0 5 -202z"/>
<path d="M5776 4289 c-33 -71 -49 -170 -41 -238 6 -50 41 -180 51 -190 10 -11
100 -18 112 -9 9 8 12 69 12 244 0 216 -1 234 -17 234 -10 0 -35 3 -55 6 -38
7 -38 6 -62 -47z m104 -200 l0 -221 -32 7 c-46 10 -45 9 -64 73 -27 85 -24
230 5 305 21 54 24 57 57 57 l34 0 0 -221z"/>
<path d="M6086 4253 c-47 -92 -61 -236 -32 -339 31 -108 34 -112 81 -120 86
-12 80 -29 80 241 l0 240 -57 3 c-54 3 -58 1 -72 -25z m104 -218 l0 -215 -34
0 c-41 0 -49 9 -72 85 -25 85 -23 193 5 278 l23 67 39 0 39 0 0 -215z"/>
<path d="M6377 4188 c-54 -114 -59 -236 -14 -366 l23 -67 51 -9 c88 -15 83
-29 83 244 l0 240 -44 0 c-24 0 -51 3 -59 6 -11 4 -22 -10 -40 -48z m101 12
c9 0 12 -50 12 -215 l0 -215 -28 0 c-16 0 -36 6 -45 13 -27 20 -48 95 -54 187
-4 70 -1 96 17 150 26 79 37 93 64 86 12 -3 27 -6 34 -6z"/>
<path d="M8094 4224 c-39 -19 -69 -73 -82 -144 -21 -117 -35 -328 -27 -435 7
-105 9 -111 39 -140 26 -27 46 -35 126 -50 99 -19 213 -25 226 -12 4 4 -7 67
-24 140 -41 173 -65 378 -57 483 5 60 3 90 -8 115 -13 31 -20 36 -74 47 -74
15 -81 15 -119 -4z m116 -25 c59 -13 66 -27 56 -124 -9 -87 18 -323 54 -473
17 -68 30 -128 30 -133 0 -15 -75 -10 -183 12 -146 29 -148 31 -154 200 -6
151 17 395 44 460 15 39 51 68 85 69 9 0 40 -5 68 -11z"/>
<path d="M6704 4175 c-30 -45 -54 -127 -60 -198 -7 -77 9 -161 43 -234 17 -36
22 -38 73 -45 34 -4 60 -2 67 4 19 15 19 477 1 483 -7 2 -35 6 -61 8 -42 4
-50 2 -63 -18z m89 -15 c16 0 17 -17 17 -221 l0 -222 -42 7 c-24 4 -46 10 -50
14 -17 18 -48 151 -48 206 0 63 20 147 47 199 11 23 19 28 36 23 12 -3 30 -6
40 -6z"/>
<path d="M7022 4101 c-63 -119 -69 -260 -16 -386 l29 -70 63 -9 c98 -14 94
-26 87 263 -4 135 -9 247 -13 248 -4 1 -33 3 -64 6 l-57 4 -29 -56z m116 19
l22 0 0 -231 0 -232 -51 5 c-58 6 -62 9 -90 98 -36 112 -23 250 31 339 17 26
26 32 43 27 12 -3 32 -6 45 -6z"/>
<path d="M7404 4059 c-63 -124 -70 -236 -24 -368 16 -46 34 -87 40 -91 23 -14
122 -21 136 -9 11 9 14 61 14 260 l0 249 -32 0 c-18 0 -50 3 -70 6 -36 6 -37
6 -64 -47z m120 15 c14 -5 16 -36 16 -235 0 -255 6 -236 -72 -223 -35 6 -37 9
-62 85 -42 126 -31 265 29 355 15 24 54 32 89 18z"/>
<path d="M6373 5665 c-193 -97 -193 -438 -1 -536 51 -26 132 -28 181 -4 47 22
104 85 129 143 64 144 2 340 -127 401 -60 28 -119 27 -182 -4z m212 -33 c119
-83 140 -312 39 -431 -67 -78 -160 -100 -244 -57 -163 83 -187 349 -43 476 74
65 165 69 248 12z"/>
</g>
</svg>
